%FSTAX23Y23*%
%MOIN*%
%SFA1B1*%

%IPPOS*%
%ADD48C,0.003000*%
%ADD57C,0.010000*%
%ADD58C,0.000000*%
%ADD59C,0.003937*%
%ADD60C,0.001000*%
%LNmain_mechanical_13-1*%
%LPD*%
G54D48*
X03054Y00604D02*
X03087Y00638D01*
Y00604D02*
X03054Y00638D01*
X03071Y00604D02*
Y00638D01*
X03087Y00621D02*
X03054D01*
G54D57*
X03899Y02124D02*
D01*
X03899Y02128*
X03899Y02131*
X03898Y02135*
X03897Y02138*
X03896Y02141*
X03895Y02144*
X03893Y02147*
X03892Y0215*
X0389Y02153*
X03887Y02156*
X03885Y02159*
X03883Y02161*
X0388Y02163*
X03877Y02165*
X03874Y02167*
X03871Y02169*
X03868Y0217*
X03865Y02171*
X03862Y02172*
X03858Y02173*
X03855Y02173*
X03851Y02174*
X0385Y02174*
Y02075D02*
D01*
X03853Y02075*
X03857Y02076*
X0386Y02076*
X03863Y02077*
X03867Y02078*
X0387Y02079*
X03873Y02081*
X03876Y02083*
X03879Y02085*
X03881Y02087*
X03884Y02089*
X03886Y02091*
X03889Y02094*
X03891Y02097*
X03892Y021*
X03894Y02103*
X03895Y02106*
X03897Y02109*
X03898Y02112*
X03898Y02116*
X03899Y02119*
X03899Y02123*
X03899Y02124*
X03486Y02174D02*
D01*
X03482Y02173*
X03479Y02173*
X03475Y02172*
X03472Y02172*
X03469Y02171*
X03466Y02169*
X03462Y02168*
X0346Y02166*
X03457Y02164*
X03454Y02162*
X03451Y0216*
X03449Y02157*
X03447Y02155*
X03445Y02152*
X03443Y02149*
X03441Y02146*
X0344Y02143*
X03439Y0214*
X03438Y02136*
X03437Y02133*
X03437Y02129*
X03436Y02126*
X03436Y02124*
D01*
X03437Y02121*
X03437Y02117*
X03437Y02114*
X03438Y02111*
X03439Y02108*
X03441Y02104*
X03442Y02101*
X03444Y02098*
X03446Y02095*
X03448Y02093*
X0345Y0209*
X03453Y02088*
X03455Y02086*
X03458Y02084*
X03461Y02082*
X03464Y0208*
X03467Y02079*
X0347Y02078*
X03474Y02077*
X03477Y02076*
X0348Y02075*
X03484Y02075*
X03486Y02075*
X04271Y03061D02*
D01*
X04271Y03057*
X04272Y03054*
X04272Y0305*
X04273Y03047*
X04274Y03044*
X04275Y03041*
X04277Y03037*
X04279Y03034*
X04281Y03032*
X04283Y03029*
X04285Y03026*
X04287Y03024*
X0429Y03022*
X04293Y0302*
X04296Y03018*
X04299Y03016*
X04302Y03015*
X04305Y03014*
X04308Y03013*
X04312Y03012*
X04315Y03012*
X04319Y03011*
X0432Y03011*
Y0311D02*
D01*
X04317Y0311*
X04314Y03109*
X0431Y03109*
X04307Y03108*
X04304Y03107*
X043Y03105*
X04297Y03104*
X04294Y03102*
X04291Y031*
X04289Y03098*
X04286Y03096*
X04284Y03093*
X04282Y03091*
X0428Y03088*
X04278Y03085*
X04276Y03082*
X04275Y03079*
X04274Y03076*
X04273Y03072*
X04272Y03069*
X04271Y03066*
X04271Y03062*
X04271Y03061*
X04537Y03011D02*
D01*
X0454Y03011*
X04544Y03012*
X04547Y03012*
X0455Y03013*
X04554Y03014*
X04557Y03016*
X0456Y03017*
X04563Y03019*
X04566Y03021*
X04569Y03023*
X04571Y03025*
X04573Y03028*
X04576Y0303*
X04578Y03033*
X0458Y03036*
X04581Y03039*
X04583Y03042*
X04584Y03045*
X04585Y03049*
X04585Y03052*
X04586Y03055*
X04586Y03059*
X04586Y03061*
D01*
X04586Y03064*
X04586Y03067*
X04585Y03071*
X04584Y03074*
X04583Y03077*
X04582Y03081*
X0458Y03084*
X04579Y03087*
X04577Y03089*
X04575Y03092*
X04572Y03095*
X0457Y03097*
X04567Y03099*
X04564Y03101*
X04562Y03103*
X04558Y03105*
X04555Y03106*
X04552Y03107*
X04549Y03108*
X04545Y03109*
X04542Y03109*
X04539Y0311*
X04537Y0311*
X0497Y01141D02*
D01*
X0497Y01145*
X04969Y01148*
X04969Y01151*
X04968Y01155*
X04967Y01158*
X04966Y01161*
X04964Y01164*
X04962Y01167*
X04961Y0117*
X04958Y01173*
X04956Y01175*
X04954Y01178*
X04951Y0118*
X04948Y01182*
X04945Y01184*
X04942Y01185*
X04939Y01187*
X04936Y01188*
X04933Y01189*
X04929Y0119*
X04926Y0119*
X04922Y0119*
X04921Y0119*
Y01092D02*
D01*
X04924Y01092*
X04928Y01092*
X04931Y01093*
X04934Y01094*
X04938Y01095*
X04941Y01096*
X04944Y01098*
X04947Y01099*
X0495Y01101*
X04952Y01104*
X04955Y01106*
X04957Y01108*
X0496Y01111*
X04962Y01114*
X04963Y01117*
X04965Y0112*
X04966Y01123*
X04968Y01126*
X04969Y01129*
X04969Y01133*
X0497Y01136*
X0497Y0114*
X0497Y01141*
X04281Y0119D02*
D01*
X04278Y0119*
X04274Y0119*
X04271Y01189*
X04267Y01189*
X04264Y01187*
X04261Y01186*
X04258Y01185*
X04255Y01183*
X04252Y01181*
X04249Y01179*
X04247Y01177*
X04244Y01174*
X04242Y01172*
X0424Y01169*
X04238Y01166*
X04237Y01163*
X04235Y0116*
X04234Y01156*
X04233Y01153*
X04233Y0115*
X04232Y01146*
X04232Y01143*
X04232Y01141*
D01*
X04232Y01138*
X04232Y01134*
X04233Y01131*
X04234Y01128*
X04235Y01124*
X04236Y01121*
X04238Y01118*
X04239Y01115*
X04241Y01112*
X04243Y0111*
X04246Y01107*
X04248Y01105*
X04251Y01102*
X04253Y011*
X04256Y01099*
X04259Y01097*
X04263Y01096*
X04266Y01094*
X04269Y01093*
X04272Y01093*
X04276Y01092*
X04279Y01092*
X04281Y01092*
X02942Y02106D02*
D01*
X02942Y02109*
X02942Y02113*
X02941Y02116*
X02941Y02119*
X02939Y02123*
X02938Y02126*
X02937Y02129*
X02935Y02132*
X02933Y02135*
X02931Y02137*
X02929Y0214*
X02926Y02142*
X02923Y02145*
X02921Y02147*
X02918Y02148*
X02915Y0215*
X02912Y02151*
X02908Y02153*
X02905Y02154*
X02902Y02154*
X02898Y02155*
X02895Y02155*
X02893Y02155*
Y02057D02*
D01*
X02897Y02057*
X029Y02057*
X02903Y02058*
X02907Y02058*
X0291Y0206*
X02913Y02061*
X02916Y02062*
X02919Y02064*
X02922Y02066*
X02925Y02068*
X02927Y0207*
X0293Y02073*
X02932Y02076*
X02934Y02078*
X02936Y02081*
X02937Y02084*
X02939Y02087*
X0294Y02091*
X02941Y02094*
X02942Y02097*
X02942Y02101*
X02942Y02104*
X02942Y02106*
X02519Y02155D02*
D01*
X02516Y02155*
X02512Y02155*
X02509Y02154*
X02506Y02153*
X02502Y02152*
X02499Y02151*
X02496Y02149*
X02493Y02148*
X0249Y02146*
X02488Y02143*
X02485Y02141*
X02483Y02139*
X0248Y02136*
X02478Y02133*
X02477Y0213*
X02475Y02127*
X02474Y02124*
X02472Y02121*
X02471Y02118*
X02471Y02114*
X0247Y02111*
X0247Y02108*
X0247Y02106*
D01*
X0247Y02102*
X0247Y02099*
X02471Y02096*
X02472Y02092*
X02473Y02089*
X02474Y02086*
X02476Y02083*
X02477Y0208*
X02479Y02077*
X02481Y02074*
X02484Y02072*
X02486Y02069*
X02489Y02067*
X02492Y02065*
X02495Y02063*
X02498Y02062*
X02501Y0206*
X02504Y02059*
X02507Y02058*
X02511Y02057*
X02514Y02057*
X02517Y02057*
X02519Y02057*
X02874Y03011D02*
D01*
X02877Y03011*
X0288Y03012*
X02884Y03012*
X02887Y03013*
X0289Y03014*
X02894Y03016*
X02897Y03017*
X029Y03019*
X02902Y03021*
X02905Y03023*
X02908Y03025*
X0291Y03028*
X02912Y0303*
X02914Y03033*
X02916Y03036*
X02918Y03039*
X02919Y03042*
X0292Y03045*
X02921Y03049*
X02922Y03052*
X02922Y03055*
X02923Y03059*
X02923Y03061*
D01*
X02923Y03064*
X02922Y03067*
X02922Y03071*
X02921Y03074*
X0292Y03077*
X02918Y03081*
X02917Y03084*
X02915Y03087*
X02913Y03089*
X02911Y03092*
X02909Y03095*
X02906Y03097*
X02904Y03099*
X02901Y03101*
X02898Y03103*
X02895Y03105*
X02892Y03106*
X02889Y03107*
X02885Y03108*
X02882Y03109*
X02879Y03109*
X02875Y0311*
X02874Y0311*
X02509D02*
D01*
X02506Y0311*
X02502Y03109*
X02499Y03109*
X02496Y03108*
X02493Y03107*
X02489Y03105*
X02486Y03104*
X02483Y03102*
X0248Y031*
X02478Y03098*
X02475Y03096*
X02473Y03093*
X02471Y03091*
X02469Y03088*
X02467Y03085*
X02465Y03082*
X02464Y03079*
X02463Y03076*
X02462Y03072*
X02461Y03069*
X0246Y03066*
X0246Y03062*
X0246Y03061*
D01*
X0246Y03057*
X02461Y03054*
X02461Y0305*
X02462Y03047*
X02463Y03044*
X02464Y03041*
X02466Y03037*
X02468Y03034*
X0247Y03032*
X02472Y03029*
X02474Y03026*
X02476Y03024*
X02479Y03022*
X02482Y0302*
X02485Y03018*
X02488Y03016*
X02491Y03015*
X02494Y03014*
X02497Y03013*
X02501Y03012*
X02504Y03012*
X02508Y03011*
X02509Y03011*
X03425Y03061D02*
D01*
X03425Y03057*
X03425Y03054*
X03426Y0305*
X03427Y03047*
X03428Y03044*
X03429Y03041*
X0343Y03037*
X03432Y03034*
X03434Y03032*
X03436Y03029*
X03439Y03026*
X03441Y03024*
X03444Y03022*
X03446Y0302*
X03449Y03018*
X03452Y03016*
X03455Y03015*
X03459Y03014*
X03462Y03013*
X03465Y03012*
X03469Y03012*
X03472Y03011*
X03474Y03011*
Y0311D02*
D01*
X0347Y0311*
X03467Y03109*
X03464Y03109*
X0346Y03108*
X03457Y03107*
X03454Y03105*
X03451Y03104*
X03448Y03102*
X03445Y031*
X03442Y03098*
X0344Y03096*
X03437Y03093*
X03435Y03091*
X03433Y03088*
X03431Y03085*
X0343Y03082*
X03428Y03079*
X03427Y03076*
X03426Y03072*
X03425Y03069*
X03425Y03066*
X03425Y03062*
X03425Y03061*
X03838Y03011D02*
D01*
X03842Y03011*
X03845Y03012*
X03848Y03012*
X03852Y03013*
X03855Y03014*
X03858Y03016*
X03861Y03017*
X03864Y03019*
X03867Y03021*
X0387Y03023*
X03872Y03025*
X03875Y03028*
X03877Y0303*
X03879Y03033*
X03881Y03036*
X03882Y03039*
X03884Y03042*
X03885Y03045*
X03886Y03049*
X03887Y03052*
X03887Y03055*
X03887Y03059*
X03887Y03061*
D01*
X03887Y03064*
X03887Y03067*
X03886Y03071*
X03885Y03074*
X03884Y03077*
X03883Y03081*
X03882Y03084*
X0388Y03087*
X03878Y03089*
X03876Y03092*
X03873Y03095*
X03871Y03097*
X03868Y03099*
X03866Y03101*
X03863Y03103*
X0386Y03105*
X03857Y03106*
X03853Y03107*
X0385Y03108*
X03847Y03109*
X03843Y03109*
X0384Y0311*
X03838Y0311*
X04586Y02116D02*
D01*
X04586Y02119*
X04586Y02122*
X04585Y02126*
X04584Y02129*
X04583Y02132*
X04582Y02136*
X0458Y02139*
X04579Y02142*
X04577Y02145*
X04575Y02147*
X04572Y0215*
X0457Y02152*
X04567Y02154*
X04564Y02156*
X04562Y02158*
X04558Y0216*
X04555Y02161*
X04552Y02162*
X04549Y02163*
X04545Y02164*
X04542Y02165*
X04539Y02165*
X04537Y02165*
Y02066D02*
D01*
X0454Y02067*
X04544Y02067*
X04547Y02068*
X0455Y02068*
X04554Y02069*
X04557Y02071*
X0456Y02072*
X04563Y02074*
X04566Y02076*
X04569Y02078*
X04571Y0208*
X04573Y02083*
X04576Y02085*
X04578Y02088*
X0458Y02091*
X04581Y02094*
X04583Y02097*
X04584Y021*
X04585Y02104*
X04585Y02107*
X04586Y0211*
X04586Y02114*
X04586Y02116*
X0432Y02165D02*
D01*
X04317Y02165*
X04314Y02164*
X0431Y02164*
X04307Y02163*
X04304Y02162*
X043Y02161*
X04297Y02159*
X04294Y02157*
X04291Y02155*
X04289Y02153*
X04286Y02151*
X04284Y02149*
X04282Y02146*
X0428Y02143*
X04278Y0214*
X04276Y02137*
X04275Y02134*
X04274Y02131*
X04273Y02128*
X04272Y02124*
X04271Y02121*
X04271Y02117*
X04271Y02116*
D01*
X04271Y02112*
X04272Y02109*
X04272Y02105*
X04273Y02102*
X04274Y02099*
X04275Y02096*
X04277Y02093*
X04279Y0209*
X04281Y02087*
X04283Y02084*
X04285Y02081*
X04287Y02079*
X0429Y02077*
X04293Y02075*
X04296Y02073*
X04299Y02071*
X04302Y0207*
X04305Y02069*
X04308Y02068*
X04312Y02067*
X04315Y02067*
X04319Y02066*
X0432Y02066*
X03228Y04192D02*
D01*
X03224Y04192*
X03221Y04192*
X03218Y04191*
X03214Y04191*
X03211Y04189*
X03208Y04188*
X03205Y04187*
X03202Y04185*
X03199Y04183*
X03196Y04181*
X03194Y04179*
X03191Y04176*
X03189Y04173*
X03187Y04171*
X03185Y04168*
X03184Y04165*
X03182Y04162*
X03181Y04158*
X0318Y04155*
X03179Y04152*
X03179Y04148*
X03179Y04145*
X03179Y04143*
D01*
X03179Y0414*
X03179Y04136*
X0318Y04133*
X03181Y0413*
X03182Y04126*
X03183Y04123*
X03184Y0412*
X03186Y04117*
X03188Y04114*
X0319Y04112*
X03192Y04109*
X03195Y04107*
X03198Y04104*
X032Y04102*
X03203Y04101*
X03206Y04099*
X03209Y04098*
X03213Y04096*
X03216Y04095*
X03219Y04095*
X03223Y04094*
X03226Y04094*
X03228Y04094*
X04251Y05108D02*
D01*
X04252Y05104*
X04252Y05101*
X04253Y05098*
X04253Y05094*
X04254Y05091*
X04256Y05088*
X04257Y05085*
X04259Y05082*
X04261Y05079*
X04263Y05076*
X04265Y05074*
X04268Y05071*
X0427Y05069*
X04273Y05067*
X04276Y05065*
X04279Y05064*
X04282Y05062*
X04285Y05061*
X04289Y0506*
X04292Y05059*
X04296Y05059*
X04299Y05059*
X04301Y05059*
Y05157D02*
D01*
X04297Y05157*
X04294Y05157*
X0429Y05156*
X04287Y05155*
X04284Y05154*
X04281Y05153*
X04278Y05151*
X04275Y0515*
X04272Y05148*
X04269Y05145*
X04266Y05143*
X04264Y05141*
X04262Y05138*
X0426Y05135*
X04258Y05132*
X04256Y05129*
X04255Y05126*
X04254Y05123*
X04253Y0512*
X04252Y05116*
X04252Y05113*
X04251Y05109*
X04251Y05108*
X04517Y05059D02*
D01*
X04521Y05059*
X04524Y05059*
X04527Y0506*
X04531Y0506*
X04534Y05062*
X04537Y05063*
X0454Y05064*
X04543Y05066*
X04546Y05068*
X04549Y0507*
X04551Y05072*
X04554Y05075*
X04556Y05077*
X04558Y0508*
X0456Y05083*
X04561Y05086*
X04563Y05089*
X04564Y05093*
X04565Y05096*
X04566Y05099*
X04566Y05103*
X04566Y05106*
X04566Y05108*
D01*
X04566Y05111*
X04566Y05115*
X04565Y05118*
X04565Y05121*
X04563Y05125*
X04562Y05128*
X04561Y05131*
X04559Y05134*
X04557Y05137*
X04555Y05139*
X04553Y05142*
X0455Y05144*
X04548Y05147*
X04545Y05149*
X04542Y0515*
X04539Y05152*
X04536Y05153*
X04532Y05155*
X04529Y05156*
X04526Y05156*
X04522Y05157*
X04519Y05157*
X04517Y05157*
X03868Y06053D02*
D01*
X03867Y06056*
X03867Y06059*
X03867Y06063*
X03866Y06066*
X03865Y06069*
X03863Y06073*
X03862Y06076*
X0386Y06079*
X03858Y06082*
X03856Y06084*
X03854Y06087*
X03851Y06089*
X03849Y06091*
X03846Y06093*
X03843Y06095*
X0384Y06097*
X03837Y06098*
X03834Y06099*
X0383Y061*
X03827Y06101*
X03824Y06102*
X0382Y06102*
X03818Y06102*
Y06003D02*
D01*
X03822Y06004*
X03825Y06004*
X03829Y06005*
X03832Y06005*
X03835Y06006*
X03838Y06008*
X03842Y06009*
X03844Y06011*
X03847Y06013*
X0385Y06015*
X03853Y06017*
X03855Y0602*
X03857Y06022*
X03859Y06025*
X03861Y06028*
X03863Y06031*
X03864Y06034*
X03865Y06037*
X03866Y06041*
X03867Y06044*
X03867Y06048*
X03868Y06051*
X03868Y06053*
X03179Y06102D02*
D01*
X03175Y06102*
X03172Y06101*
X03168Y06101*
X03165Y061*
X03162Y06099*
X03159Y06098*
X03156Y06096*
X03153Y06094*
X0315Y06092*
X03147Y0609*
X03144Y06088*
X03142Y06086*
X0314Y06083*
X03138Y0608*
X03136Y06077*
X03134Y06074*
X03133Y06071*
X03132Y06068*
X03131Y06065*
X0313Y06061*
X0313Y06058*
X03129Y06054*
X03129Y06053*
D01*
X0313Y06049*
X0313Y06046*
X0313Y06042*
X03131Y06039*
X03132Y06036*
X03134Y06033*
X03135Y0603*
X03137Y06027*
X03139Y06024*
X03141Y06021*
X03143Y06018*
X03146Y06016*
X03148Y06014*
X03151Y06012*
X03154Y0601*
X03157Y06008*
X0316Y06007*
X03163Y06006*
X03167Y06005*
X0317Y06004*
X03173Y06004*
X03177Y06003*
X03179Y06003*
X0244Y06053D02*
D01*
X02441Y06049*
X02441Y06046*
X02442Y06042*
X02442Y06039*
X02443Y06036*
X02445Y06033*
X02446Y0603*
X02448Y06027*
X0245Y06024*
X02452Y06021*
X02454Y06018*
X02457Y06016*
X02459Y06014*
X02462Y06012*
X02465Y0601*
X02468Y06008*
X02471Y06007*
X02474Y06006*
X02478Y06005*
X02481Y06004*
X02485Y06004*
X02488Y06003*
X0249Y06003*
Y06102D02*
D01*
X02486Y06102*
X02483Y06101*
X02479Y06101*
X02476Y061*
X02473Y06099*
X0247Y06098*
X02467Y06096*
X02464Y06094*
X02461Y06092*
X02458Y0609*
X02455Y06088*
X02453Y06086*
X02451Y06083*
X02449Y0608*
X02447Y06077*
X02445Y06074*
X02444Y06071*
X02443Y06068*
X02442Y06065*
X02441Y06061*
X02441Y06058*
X0244Y06054*
X0244Y06053*
X02903D02*
D01*
X02903Y06056*
X02903Y06059*
X02902Y06063*
X02901Y06066*
X029Y06069*
X02899Y06073*
X02897Y06076*
X02896Y06079*
X02894Y06082*
X02892Y06084*
X02889Y06087*
X02887Y06089*
X02884Y06091*
X02881Y06093*
X02878Y06095*
X02875Y06097*
X02872Y06098*
X02869Y06099*
X02866Y061*
X02862Y06101*
X02859Y06102*
X02856Y06102*
X02854Y06102*
Y06003D02*
D01*
X02857Y06004*
X02861Y06004*
X02864Y06005*
X02867Y06005*
X02871Y06006*
X02874Y06008*
X02877Y06009*
X0288Y06011*
X02883Y06013*
X02885Y06015*
X02888Y06017*
X0289Y0602*
X02893Y06022*
X02895Y06025*
X02896Y06028*
X02898Y06031*
X02899Y06034*
X02901Y06037*
X02902Y06041*
X02902Y06044*
X02903Y06048*
X02903Y06051*
X02903Y06053*
X03149Y05098D02*
D01*
X03149Y05094*
X0315Y05091*
X0315Y05088*
X03151Y05084*
X03152Y05081*
X03153Y05078*
X03155Y05075*
X03157Y05072*
X03159Y05069*
X03161Y05066*
X03163Y05064*
X03165Y05061*
X03168Y05059*
X03171Y05057*
X03174Y05055*
X03177Y05054*
X0318Y05052*
X03183Y05051*
X03186Y0505*
X0319Y05049*
X03193Y05049*
X03197Y05049*
X03198Y05049*
Y05147D02*
D01*
X03195Y05147*
X03191Y05147*
X03188Y05146*
X03185Y05145*
X03181Y05144*
X03178Y05143*
X03175Y05141*
X03172Y0514*
X03169Y05138*
X03167Y05136*
X03164Y05133*
X03162Y05131*
X0316Y05128*
X03158Y05125*
X03156Y05123*
X03154Y05119*
X03153Y05116*
X03152Y05113*
X03151Y0511*
X0315Y05106*
X03149Y05103*
X03149Y051*
X03149Y05098*
X03838Y05049D02*
D01*
X03842Y05049*
X03845Y05049*
X03848Y0505*
X03852Y05051*
X03855Y05052*
X03858Y05053*
X03861Y05054*
X03864Y05056*
X03867Y05058*
X0387Y0506*
X03872Y05063*
X03875Y05065*
X03877Y05068*
X03879Y0507*
X03881Y05073*
X03882Y05076*
X03884Y05079*
X03885Y05083*
X03886Y05086*
X03887Y05089*
X03887Y05093*
X03887Y05096*
X03887Y05098*
D01*
X03887Y05101*
X03887Y05105*
X03886Y05108*
X03885Y05111*
X03884Y05115*
X03883Y05118*
X03882Y05121*
X0388Y05124*
X03878Y05127*
X03876Y0513*
X03873Y05132*
X03871Y05134*
X03868Y05137*
X03866Y05139*
X03863Y05141*
X0386Y05142*
X03857Y05144*
X03853Y05145*
X0385Y05146*
X03847Y05146*
X03843Y05147*
X0384Y05147*
X03838Y05147*
X0245Y05098D02*
D01*
X0245Y05094*
X02451Y05091*
X02451Y05088*
X02452Y05084*
X02453Y05081*
X02455Y05078*
X02456Y05075*
X02458Y05072*
X0246Y05069*
X02462Y05066*
X02464Y05064*
X02467Y05061*
X02469Y05059*
X02472Y05057*
X02475Y05055*
X02478Y05054*
X02481Y05052*
X02484Y05051*
X02488Y0505*
X02491Y05049*
X02494Y05049*
X02498Y05049*
X025Y05049*
Y05147D02*
D01*
X02496Y05147*
X02493Y05147*
X02489Y05146*
X02486Y05145*
X02483Y05144*
X02479Y05143*
X02476Y05141*
X02473Y0514*
X02471Y05138*
X02468Y05136*
X02465Y05133*
X02463Y05131*
X02461Y05128*
X02459Y05125*
X02457Y05123*
X02455Y05119*
X02454Y05116*
X02453Y05113*
X02452Y0511*
X02451Y05106*
X02451Y05103*
X0245Y051*
X0245Y05098*
X02874Y05049D02*
D01*
X02877Y05049*
X0288Y05049*
X02884Y0505*
X02887Y05051*
X0289Y05052*
X02894Y05053*
X02897Y05054*
X029Y05056*
X02902Y05058*
X02905Y0506*
X02908Y05063*
X0291Y05065*
X02912Y05068*
X02914Y0507*
X02916Y05073*
X02918Y05076*
X02919Y05079*
X0292Y05083*
X02921Y05086*
X02922Y05089*
X02922Y05093*
X02923Y05096*
X02923Y05098*
D01*
X02923Y05101*
X02922Y05105*
X02922Y05108*
X02921Y05111*
X0292Y05115*
X02918Y05118*
X02917Y05121*
X02915Y05124*
X02913Y05127*
X02911Y0513*
X02909Y05132*
X02906Y05134*
X02904Y05137*
X02901Y05139*
X02898Y05141*
X02895Y05142*
X02892Y05144*
X02889Y05145*
X02885Y05146*
X02882Y05146*
X02879Y05147*
X02875Y05147*
X02874Y05147*
X02844Y04133D02*
D01*
X02844Y04137*
X02844Y0414*
X02843Y04144*
X02842Y04147*
X02841Y0415*
X0284Y04153*
X02838Y04156*
X02837Y04159*
X02835Y04162*
X02832Y04165*
X0283Y04168*
X02828Y0417*
X02825Y04172*
X02822Y04174*
X02819Y04176*
X02816Y04178*
X02813Y04179*
X0281Y0418*
X02807Y04181*
X02803Y04182*
X028Y04182*
X02796Y04183*
X02795Y04183*
Y04084D02*
D01*
X02798Y04084*
X02802Y04085*
X02805Y04085*
X02808Y04086*
X02812Y04087*
X02815Y04088*
X02818Y0409*
X02821Y04092*
X02824Y04094*
X02826Y04096*
X02829Y04098*
X02831Y041*
X02834Y04103*
X02836Y04106*
X02837Y04109*
X02839Y04112*
X0284Y04115*
X02842Y04118*
X02843Y04121*
X02843Y04125*
X02844Y04128*
X02844Y04132*
X02844Y04133*
X02155Y04183D02*
D01*
X02152Y04182*
X02148Y04182*
X02145Y04181*
X02141Y04181*
X02138Y0418*
X02135Y04178*
X02132Y04177*
X02129Y04175*
X02126Y04173*
X02123Y04171*
X02121Y04169*
X02118Y04166*
X02116Y04164*
X02114Y04161*
X02112Y04158*
X02111Y04155*
X02109Y04152*
X02108Y04149*
X02107Y04145*
X02107Y04142*
X02106Y04139*
X02106Y04135*
X02106Y04133*
D01*
X02106Y0413*
X02106Y04127*
X02107Y04123*
X02108Y0412*
X02109Y04117*
X0211Y04113*
X02112Y0411*
X02113Y04107*
X02115Y04104*
X02117Y04102*
X0212Y04099*
X02122Y04097*
X02125Y04095*
X02127Y04093*
X0213Y04091*
X02133Y04089*
X02137Y04088*
X0214Y04087*
X02143Y04086*
X02146Y04085*
X0215Y04084*
X02153Y04084*
X02155Y04084*
X03641Y04143D02*
D01*
X03641Y04147*
X03641Y0415*
X0364Y04153*
X03639Y04157*
X03638Y0416*
X03637Y04163*
X03635Y04166*
X03634Y04169*
X03632Y04172*
X0363Y04175*
X03627Y04177*
X03625Y0418*
X03622Y04182*
X0362Y04184*
X03617Y04186*
X03614Y04187*
X0361Y04189*
X03607Y0419*
X03604Y04191*
X03601Y04192*
X03597Y04192*
X03594Y04192*
X03592Y04192*
Y04094D02*
D01*
X03595Y04094*
X03599Y04094*
X03602Y04095*
X03606Y04096*
X03609Y04097*
X03612Y04098*
X03615Y041*
X03618Y04101*
X03621Y04103*
X03624Y04106*
X03626Y04108*
X03629Y0411*
X03631Y04113*
X03633Y04116*
X03635Y04119*
X03636Y04122*
X03638Y04125*
X03639Y04128*
X0364Y04131*
X0364Y04135*
X03641Y04138*
X03641Y04141*
X03641Y04143*
X04212Y04133D02*
D01*
X04212Y0413*
X04213Y04127*
X04213Y04123*
X04214Y0412*
X04215Y04117*
X04216Y04113*
X04218Y0411*
X0422Y04107*
X04221Y04104*
X04224Y04102*
X04226Y04099*
X04228Y04097*
X04231Y04095*
X04234Y04093*
X04237Y04091*
X0424Y04089*
X04243Y04088*
X04246Y04087*
X04249Y04086*
X04253Y04085*
X04256Y04084*
X0426Y04084*
X04261Y04084*
Y04183D02*
D01*
X04258Y04182*
X04254Y04182*
X04251Y04181*
X04248Y04181*
X04244Y0418*
X04241Y04178*
X04238Y04177*
X04235Y04175*
X04232Y04173*
X0423Y04171*
X04227Y04169*
X04225Y04166*
X04223Y04164*
X04221Y04161*
X04219Y04158*
X04217Y04155*
X04216Y04152*
X04215Y04149*
X04214Y04145*
X04213Y04142*
X04212Y04139*
X04212Y04135*
X04212Y04133*
X04901Y04084D02*
D01*
X04905Y04084*
X04908Y04085*
X04911Y04085*
X04915Y04086*
X04918Y04087*
X04921Y04088*
X04924Y0409*
X04927Y04092*
X0493Y04094*
X04933Y04096*
X04935Y04098*
X04938Y041*
X0494Y04103*
X04942Y04106*
X04944Y04109*
X04945Y04112*
X04947Y04115*
X04948Y04118*
X04949Y04121*
X0495Y04125*
X0495Y04128*
X0495Y04132*
X0495Y04133*
D01*
X0495Y04137*
X0495Y0414*
X04949Y04144*
X04948Y04147*
X04947Y0415*
X04946Y04153*
X04945Y04156*
X04943Y04159*
X04941Y04162*
X04939Y04165*
X04936Y04168*
X04934Y0417*
X04931Y04172*
X04929Y04174*
X04926Y04176*
X04923Y04178*
X0492Y04179*
X04916Y0418*
X04913Y04181*
X0491Y04182*
X04906Y04182*
X04903Y04183*
X04901Y04183*
X04566Y06053D02*
D01*
X04566Y06056*
X04566Y06059*
X04565Y06063*
X04565Y06066*
X04563Y06069*
X04562Y06073*
X04561Y06076*
X04559Y06079*
X04557Y06082*
X04555Y06084*
X04553Y06087*
X0455Y06089*
X04548Y06091*
X04545Y06093*
X04542Y06095*
X04539Y06097*
X04536Y06098*
X04532Y06099*
X04529Y061*
X04526Y06101*
X04522Y06102*
X04519Y06102*
X04517Y06102*
Y06003D02*
D01*
X04521Y06004*
X04524Y06004*
X04527Y06005*
X04531Y06005*
X04534Y06006*
X04537Y06008*
X0454Y06009*
X04543Y06011*
X04546Y06013*
X04549Y06015*
X04551Y06017*
X04554Y0602*
X04556Y06022*
X04558Y06025*
X0456Y06028*
X04561Y06031*
X04563Y06034*
X04564Y06037*
X04565Y06041*
X04566Y06044*
X04566Y06048*
X04566Y06051*
X04566Y06053*
X04301Y06102D02*
D01*
X04297Y06102*
X04294Y06101*
X0429Y06101*
X04287Y061*
X04284Y06099*
X04281Y06098*
X04278Y06096*
X04275Y06094*
X04272Y06092*
X04269Y0609*
X04266Y06088*
X04264Y06086*
X04262Y06083*
X0426Y0608*
X04258Y06077*
X04256Y06074*
X04255Y06071*
X04254Y06068*
X04253Y06065*
X04252Y06061*
X04252Y06058*
X04251Y06054*
X04251Y06053*
D01*
X04252Y06049*
X04252Y06046*
X04253Y06042*
X04253Y06039*
X04254Y06036*
X04256Y06033*
X04257Y0603*
X04259Y06027*
X04261Y06024*
X04263Y06021*
X04265Y06018*
X04268Y06016*
X0427Y06014*
X04273Y06012*
X04276Y0601*
X04279Y06008*
X04282Y06007*
X04285Y06006*
X04289Y06005*
X04292Y06004*
X04296Y06004*
X04299Y06003*
X04301Y06003*
X04133Y09045D02*
D01*
X04133Y09041*
X04134Y09038*
X04134Y09035*
X04135Y09031*
X04136Y09028*
X04138Y09025*
X04139Y09022*
X04141Y09019*
X04143Y09016*
X04145Y09013*
X04147Y09011*
X0415Y09008*
X04152Y09006*
X04155Y09004*
X04158Y09002*
X04161Y09001*
X04164Y08999*
X04167Y08998*
X04171Y08997*
X04174Y08996*
X04177Y08996*
X04181Y08996*
X04183Y08996*
Y09094D02*
D01*
X04179Y09094*
X04176Y09094*
X04172Y09093*
X04169Y09092*
X04166Y09091*
X04163Y0909*
X04159Y09088*
X04156Y09087*
X04154Y09085*
X04151Y09082*
X04148Y0908*
X04146Y09078*
X04144Y09075*
X04142Y09072*
X0414Y09069*
X04138Y09066*
X04137Y09063*
X04136Y0906*
X04135Y09057*
X04134Y09053*
X04134Y0905*
X04133Y09046*
X04133Y09045*
X04557Y08996D02*
D01*
X0456Y08996*
X04563Y08996*
X04567Y08997*
X0457Y08997*
X04573Y08999*
X04577Y09*
X0458Y09001*
X04583Y09003*
X04586Y09005*
X04588Y09007*
X04591Y09009*
X04593Y09012*
X04595Y09014*
X04597Y09017*
X04599Y0902*
X04601Y09023*
X04602Y09026*
X04603Y0903*
X04604Y09033*
X04605Y09036*
X04606Y0904*
X04606Y09043*
X04606Y09045*
D01*
X04606Y09048*
X04605Y09052*
X04605Y09055*
X04604Y09058*
X04603Y09062*
X04602Y09065*
X046Y09068*
X04598Y09071*
X04596Y09074*
X04594Y09076*
X04592Y09079*
X0459Y09081*
X04587Y09084*
X04584Y09086*
X04581Y09087*
X04578Y09089*
X04575Y0909*
X04572Y09092*
X04568Y09093*
X04565Y09093*
X04562Y09094*
X04558Y09094*
X04557Y09094*
X04104Y081D02*
D01*
X04104Y08096*
X04104Y08093*
X04105Y0809*
X04106Y08086*
X04107Y08083*
X04108Y0808*
X0411Y08077*
X04111Y08074*
X04113Y08071*
X04115Y08068*
X04118Y08066*
X0412Y08063*
X04123Y08061*
X04126Y08059*
X04128Y08057*
X04131Y08056*
X04135Y08054*
X04138Y08053*
X04141Y08052*
X04144Y08051*
X04148Y08051*
X04151Y08051*
X04153Y08051*
Y08149D02*
D01*
X0415Y08149*
X04146Y08149*
X04143Y08148*
X04139Y08147*
X04136Y08146*
X04133Y08145*
X0413Y08143*
X04127Y08142*
X04124Y0814*
X04121Y08138*
X04119Y08135*
X04116Y08133*
X04114Y0813*
X04112Y08127*
X0411Y08125*
X04109Y08121*
X04107Y08118*
X04106Y08115*
X04105Y08112*
X04105Y08108*
X04104Y08105*
X04104Y08102*
X04104Y081*
X04527Y08051D02*
D01*
X0453Y08051*
X04534Y08051*
X04537Y08052*
X04541Y08053*
X04544Y08054*
X04547Y08055*
X0455Y08056*
X04553Y08058*
X04556Y0806*
X04559Y08062*
X04561Y08064*
X04564Y08067*
X04566Y0807*
X04568Y08072*
X0457Y08075*
X04571Y08078*
X04573Y08081*
X04574Y08085*
X04575Y08088*
X04576Y08091*
X04576Y08095*
X04576Y08098*
X04576Y081*
D01*
X04576Y08103*
X04576Y08107*
X04575Y0811*
X04574Y08113*
X04573Y08117*
X04572Y0812*
X04571Y08123*
X04569Y08126*
X04567Y08129*
X04565Y08132*
X04562Y08134*
X0456Y08136*
X04557Y08139*
X04555Y08141*
X04552Y08143*
X04549Y08144*
X04545Y08146*
X04542Y08147*
X04539Y08148*
X04536Y08148*
X04532Y08149*
X04529Y08149*
X04527Y08149*
X0497Y07135D02*
D01*
X0497Y07139*
X04969Y07142*
X04969Y07146*
X04968Y07149*
X04967Y07152*
X04966Y07155*
X04964Y07158*
X04962Y07161*
X04961Y07164*
X04958Y07167*
X04956Y0717*
X04954Y07172*
X04951Y07174*
X04948Y07176*
X04945Y07178*
X04942Y0718*
X04939Y07181*
X04936Y07182*
X04933Y07183*
X04929Y07184*
X04926Y07184*
X04922Y07185*
X04921Y07185*
Y07086D02*
D01*
X04924Y07086*
X04928Y07087*
X04931Y07087*
X04934Y07088*
X04938Y07089*
X04941Y0709*
X04944Y07092*
X04947Y07094*
X0495Y07096*
X04952Y07098*
X04955Y071*
X04957Y07102*
X0496Y07105*
X04962Y07108*
X04963Y07111*
X04965Y07114*
X04966Y07117*
X04968Y0712*
X04969Y07123*
X04969Y07127*
X0497Y0713*
X0497Y07134*
X0497Y07135*
X04281Y07185D02*
D01*
X04278Y07184*
X04274Y07184*
X04271Y07183*
X04267Y07183*
X04264Y07182*
X04261Y0718*
X04258Y07179*
X04255Y07177*
X04252Y07175*
X04249Y07173*
X04247Y07171*
X04244Y07168*
X04242Y07166*
X0424Y07163*
X04238Y0716*
X04237Y07157*
X04235Y07154*
X04234Y07151*
X04233Y07147*
X04233Y07144*
X04232Y0714*
X04232Y07137*
X04232Y07135*
D01*
X04232Y07132*
X04232Y07128*
X04233Y07125*
X04234Y07122*
X04235Y07118*
X04236Y07115*
X04238Y07112*
X04239Y07109*
X04241Y07106*
X04243Y07104*
X04246Y07101*
X04248Y07099*
X04251Y07097*
X04253Y07095*
X04256Y07093*
X04259Y07091*
X04263Y0709*
X04266Y07089*
X04269Y07088*
X04272Y07087*
X04276Y07086*
X04279Y07086*
X04281Y07086*
X03198Y07145D02*
D01*
X03198Y07142*
X03199Y07138*
X03199Y07135*
X032Y07132*
X03201Y07128*
X03203Y07125*
X03204Y07122*
X03206Y07119*
X03208Y07116*
X0321Y07114*
X03212Y07111*
X03215Y07109*
X03217Y07106*
X0322Y07104*
X03223Y07103*
X03226Y07101*
X03229Y071*
X03232Y07098*
X03236Y07097*
X03239Y07097*
X03242Y07096*
X03246Y07096*
X03248Y07096*
Y07194D02*
D01*
X03244Y07194*
X03241Y07194*
X03237Y07193*
X03234Y07192*
X03231Y07191*
X03228Y0719*
X03224Y07189*
X03221Y07187*
X03219Y07185*
X03216Y07183*
X03213Y07181*
X03211Y07178*
X03209Y07175*
X03207Y07173*
X03205Y0717*
X03203Y07167*
X03202Y07164*
X03201Y0716*
X032Y07157*
X03199Y07154*
X03199Y0715*
X03198Y07147*
X03198Y07145*
X03612Y07096D02*
D01*
X03615Y07096*
X03619Y07096*
X03622Y07097*
X03625Y07098*
X03629Y07099*
X03632Y071*
X03635Y07102*
X03638Y07103*
X03641Y07105*
X03643Y07107*
X03646Y0711*
X03648Y07112*
X0365Y07115*
X03653Y07118*
X03654Y07121*
X03656Y07124*
X03657Y07127*
X03659Y0713*
X03659Y07133*
X0366Y07137*
X03661Y0714*
X03661Y07143*
X03661Y07145*
D01*
X03661Y07149*
X0366Y07152*
X0366Y07155*
X03659Y07159*
X03658Y07162*
X03657Y07165*
X03655Y07168*
X03653Y07171*
X03652Y07174*
X03649Y07177*
X03647Y07179*
X03645Y07182*
X03642Y07184*
X03639Y07186*
X03636Y07188*
X03633Y07189*
X0363Y07191*
X03627Y07192*
X03624Y07193*
X0362Y07194*
X03617Y07194*
X03613Y07194*
X03612Y07194*
X02125Y07135D02*
D01*
X02126Y07132*
X02126Y07128*
X02127Y07125*
X02127Y07122*
X02128Y07118*
X0213Y07115*
X02131Y07112*
X02133Y07109*
X02135Y07106*
X02137Y07104*
X02139Y07101*
X02142Y07099*
X02144Y07097*
X02147Y07095*
X0215Y07093*
X02153Y07091*
X02156Y0709*
X02159Y07089*
X02163Y07088*
X02166Y07087*
X0217Y07086*
X02173Y07086*
X02175Y07086*
Y07185D02*
D01*
X02171Y07184*
X02168Y07184*
X02164Y07183*
X02161Y07183*
X02158Y07182*
X02155Y0718*
X02152Y07179*
X02149Y07177*
X02146Y07175*
X02143Y07173*
X02141Y07171*
X02138Y07168*
X02136Y07166*
X02134Y07163*
X02132Y0716*
X0213Y07157*
X02129Y07154*
X02128Y07151*
X02127Y07147*
X02126Y07144*
X02126Y0714*
X02126Y07137*
X02125Y07135*
X02814Y07086D02*
D01*
X02818Y07086*
X02821Y07087*
X02825Y07087*
X02828Y07088*
X02831Y07089*
X02834Y0709*
X02838Y07092*
X02841Y07094*
X02843Y07096*
X02846Y07098*
X02849Y071*
X02851Y07102*
X02853Y07105*
X02855Y07108*
X02857Y07111*
X02859Y07114*
X0286Y07117*
X02861Y0712*
X02862Y07123*
X02863Y07127*
X02863Y0713*
X02864Y07134*
X02864Y07135*
D01*
X02864Y07139*
X02863Y07142*
X02863Y07146*
X02862Y07149*
X02861Y07152*
X02859Y07155*
X02858Y07158*
X02856Y07161*
X02854Y07164*
X02852Y07167*
X0285Y0717*
X02847Y07172*
X02845Y07174*
X02842Y07176*
X02839Y07178*
X02836Y0718*
X02833Y07181*
X0283Y07182*
X02826Y07183*
X02823Y07184*
X0282Y07184*
X02816Y07185*
X02814Y07185*
X02942Y081D02*
D01*
X02942Y08103*
X02942Y08107*
X02941Y0811*
X02941Y08113*
X02939Y08117*
X02938Y0812*
X02937Y08123*
X02935Y08126*
X02933Y08129*
X02931Y08132*
X02929Y08134*
X02926Y08136*
X02923Y08139*
X02921Y08141*
X02918Y08143*
X02915Y08144*
X02912Y08146*
X02908Y08147*
X02905Y08148*
X02902Y08148*
X02898Y08149*
X02895Y08149*
X02893Y08149*
Y08051D02*
D01*
X02897Y08051*
X029Y08051*
X02903Y08052*
X02907Y08053*
X0291Y08054*
X02913Y08055*
X02916Y08056*
X02919Y08058*
X02922Y0806*
X02925Y08062*
X02927Y08064*
X0293Y08067*
X02932Y0807*
X02934Y08072*
X02936Y08075*
X02937Y08078*
X02939Y08081*
X0294Y08085*
X02941Y08088*
X02942Y08091*
X02942Y08095*
X02942Y08098*
X02942Y081*
X02519Y08149D02*
D01*
X02516Y08149*
X02512Y08149*
X02509Y08148*
X02506Y08147*
X02502Y08146*
X02499Y08145*
X02496Y08143*
X02493Y08142*
X0249Y0814*
X02488Y08138*
X02485Y08135*
X02483Y08133*
X0248Y0813*
X02478Y08127*
X02477Y08125*
X02475Y08121*
X02474Y08118*
X02472Y08115*
X02471Y08112*
X02471Y08108*
X0247Y08105*
X0247Y08102*
X0247Y081*
D01*
X0247Y08096*
X0247Y08093*
X02471Y0809*
X02472Y08086*
X02473Y08083*
X02474Y0808*
X02476Y08077*
X02477Y08074*
X02479Y08071*
X02481Y08068*
X02484Y08066*
X02486Y08063*
X02489Y08061*
X02492Y08059*
X02495Y08057*
X02498Y08056*
X02501Y08054*
X02504Y08053*
X02507Y08052*
X02511Y08051*
X02514Y08051*
X02517Y08051*
X02519Y08051*
X03907Y081D02*
D01*
X03907Y08103*
X03907Y08107*
X03906Y0811*
X03905Y08113*
X03904Y08117*
X03903Y0812*
X03901Y08123*
X039Y08126*
X03898Y08129*
X03895Y08132*
X03893Y08134*
X03891Y08136*
X03888Y08139*
X03885Y08141*
X03882Y08143*
X03879Y08144*
X03876Y08146*
X03873Y08147*
X0387Y08148*
X03866Y08148*
X03863Y08149*
X03859Y08149*
X03858Y08149*
Y08051D02*
D01*
X03861Y08051*
X03865Y08051*
X03868Y08052*
X03871Y08053*
X03875Y08054*
X03878Y08055*
X03881Y08056*
X03884Y08058*
X03887Y0806*
X03889Y08062*
X03892Y08064*
X03894Y08067*
X03897Y0807*
X03899Y08072*
X039Y08075*
X03902Y08078*
X03903Y08081*
X03905Y08085*
X03906Y08088*
X03906Y08091*
X03907Y08095*
X03907Y08098*
X03907Y081*
X03218Y08149D02*
D01*
X03215Y08149*
X03211Y08149*
X03208Y08148*
X03204Y08147*
X03201Y08146*
X03198Y08145*
X03195Y08143*
X03192Y08142*
X03189Y0814*
X03186Y08138*
X03184Y08135*
X03181Y08133*
X03179Y0813*
X03177Y08127*
X03175Y08125*
X03174Y08121*
X03172Y08118*
X03171Y08115*
X0317Y08112*
X0317Y08108*
X03169Y08105*
X03169Y08102*
X03169Y081*
D01*
X03169Y08096*
X03169Y08093*
X0317Y0809*
X03171Y08086*
X03172Y08083*
X03173Y0808*
X03175Y08077*
X03176Y08074*
X03178Y08071*
X0318Y08068*
X03183Y08066*
X03185Y08063*
X03188Y08061*
X0319Y08059*
X03193Y08057*
X03196Y08056*
X032Y08054*
X03203Y08053*
X03206Y08052*
X03209Y08051*
X03213Y08051*
X03216Y08051*
X03218Y08051*
X02874Y09005D02*
D01*
X02877Y09006*
X0288Y09006*
X02884Y09006*
X02887Y09007*
X0289Y09008*
X02894Y0901*
X02897Y09011*
X029Y09013*
X02902Y09015*
X02905Y09017*
X02908Y09019*
X0291Y09022*
X02912Y09024*
X02914Y09027*
X02916Y0903*
X02918Y09033*
X02919Y09036*
X0292Y09039*
X02921Y09043*
X02922Y09046*
X02922Y09049*
X02923Y09053*
X02923Y09055*
D01*
X02923Y09058*
X02922Y09061*
X02922Y09065*
X02921Y09068*
X0292Y09071*
X02918Y09075*
X02917Y09078*
X02915Y09081*
X02913Y09084*
X02911Y09086*
X02909Y09089*
X02906Y09091*
X02904Y09093*
X02901Y09095*
X02898Y09097*
X02895Y09099*
X02892Y091*
X02889Y09101*
X02885Y09102*
X02882Y09103*
X02879Y09104*
X02875Y09104*
X02874Y09104*
X02509D02*
D01*
X02506Y09104*
X02502Y09103*
X02499Y09103*
X02496Y09102*
X02493Y09101*
X02489Y091*
X02486Y09098*
X02483Y09096*
X0248Y09094*
X02478Y09092*
X02475Y0909*
X02473Y09088*
X02471Y09085*
X02469Y09082*
X02467Y09079*
X02465Y09076*
X02464Y09073*
X02463Y0907*
X02462Y09067*
X02461Y09063*
X0246Y0906*
X0246Y09056*
X0246Y09055*
D01*
X0246Y09051*
X02461Y09048*
X02461Y09044*
X02462Y09041*
X02463Y09038*
X02464Y09035*
X02466Y09032*
X02468Y09029*
X0247Y09026*
X02472Y09023*
X02474Y0902*
X02476Y09018*
X02479Y09016*
X02482Y09014*
X02485Y09012*
X02488Y0901*
X02491Y09009*
X02494Y09008*
X02497Y09007*
X02501Y09006*
X02504Y09006*
X02508Y09005*
X02509Y09005*
X03149Y09055D02*
D01*
X03149Y09051*
X0315Y09048*
X0315Y09044*
X03151Y09041*
X03152Y09038*
X03153Y09035*
X03155Y09032*
X03157Y09029*
X03159Y09026*
X03161Y09023*
X03163Y0902*
X03165Y09018*
X03168Y09016*
X03171Y09014*
X03174Y09012*
X03177Y0901*
X0318Y09009*
X03183Y09008*
X03186Y09007*
X0319Y09006*
X03193Y09006*
X03197Y09005*
X03198Y09005*
Y09104D02*
D01*
X03195Y09104*
X03191Y09103*
X03188Y09103*
X03185Y09102*
X03181Y09101*
X03178Y091*
X03175Y09098*
X03172Y09096*
X03169Y09094*
X03167Y09092*
X03164Y0909*
X03162Y09088*
X0316Y09085*
X03158Y09082*
X03156Y09079*
X03154Y09076*
X03153Y09073*
X03152Y0907*
X03151Y09067*
X0315Y09063*
X03149Y0906*
X03149Y09056*
X03149Y09055*
X03838Y09005D02*
D01*
X03842Y09006*
X03845Y09006*
X03848Y09006*
X03852Y09007*
X03855Y09008*
X03858Y0901*
X03861Y09011*
X03864Y09013*
X03867Y09015*
X0387Y09017*
X03872Y09019*
X03875Y09022*
X03877Y09024*
X03879Y09027*
X03881Y0903*
X03882Y09033*
X03884Y09036*
X03885Y09039*
X03886Y09043*
X03887Y09046*
X03887Y09049*
X03887Y09053*
X03887Y09055*
D01*
X03887Y09058*
X03887Y09061*
X03886Y09065*
X03885Y09068*
X03884Y09071*
X03883Y09075*
X03882Y09078*
X0388Y09081*
X03878Y09084*
X03876Y09086*
X03873Y09089*
X03871Y09091*
X03868Y09093*
X03866Y09095*
X03863Y09097*
X0386Y09099*
X03857Y091*
X03853Y09101*
X0385Y09102*
X03847Y09103*
X03843Y09104*
X0384Y09104*
X03838Y09104*
X03486Y02174D02*
X0385D01*
X03486Y02075D02*
X0385D01*
X0432Y03011D02*
X04537D01*
X0432Y0311D02*
X04537D01*
X04281Y0119D02*
X04921D01*
X04281Y01092D02*
X04921D01*
X02509Y0311D02*
X02874D01*
X02519Y02155D02*
X02893D01*
X02519Y02057D02*
X02893D01*
X02509Y03011D02*
X02874D01*
X03474D02*
X03838D01*
X03474Y0311D02*
X03838D01*
X0432Y02165D02*
X04537D01*
X0432Y02066D02*
X04537D01*
X04301Y05059D02*
X04517D01*
X04301Y05157D02*
X04517D01*
X03179Y06102D02*
X03818D01*
X03179Y06003D02*
X03818D01*
X0249D02*
X02854D01*
X03198Y05049D02*
X03838D01*
X03198Y05147D02*
X03838D01*
X025Y05049D02*
X02874D01*
X025Y05147D02*
X02874D01*
X02155Y04183D02*
X02795D01*
X02155Y04084D02*
X02795D01*
X03228Y04192D02*
X03592D01*
X03228Y04094D02*
X03592D01*
X0249Y06102D02*
X02854D01*
X04261Y04084D02*
X04901D01*
X04261Y04183D02*
X04901D01*
X04301Y06102D02*
X04517D01*
X04301Y06003D02*
X04517D01*
X04183Y08996D02*
X04557D01*
X04183Y09094D02*
X04557D01*
X04153Y08051D02*
X04527D01*
X04153Y08149D02*
X04527D01*
X04281Y07185D02*
X04921D01*
X04281Y07086D02*
X04921D01*
X02509Y09104D02*
X02874D01*
X03248Y07096D02*
X03612D01*
X03248Y07194D02*
X03612D01*
X02175Y07086D02*
X02814D01*
X02175Y07185D02*
X02814D01*
X02519Y08149D02*
X02893D01*
X02519Y08051D02*
X02893D01*
X03218Y08149D02*
X03858D01*
X03218Y08051D02*
X03858D01*
X02509Y09005D02*
X02874D01*
X03198D02*
X03838D01*
X03198Y09104D02*
X03838D01*
G54D58*
X03043Y00667D02*
D01*
X03044Y00667*
X03044Y00667*
X03045Y00667*
X03046Y00667*
X03047Y00667*
X03048Y00668*
X03048Y00668*
X03049Y00668*
X0305Y00669*
X03051Y00669*
X03051Y0067*
X03052Y00671*
X03052Y00671*
X03053Y00672*
X03053Y00673*
X03054Y00673*
X03054Y00674*
X03054Y00675*
X03054Y00676*
X03055Y00677*
X03055Y00677*
X03055Y00678*
Y00679*
X03055Y0068*
X03055Y00681*
X03054Y00682*
X03054Y00682*
X03054Y00683*
X03054Y00684*
X03053Y00685*
X03053Y00685*
X03052Y00686*
X03052Y00687*
X03051Y00687*
X03051Y00688*
X0305Y00688*
X03049Y00689*
X03048Y00689*
X03048Y0069*
X03047Y0069*
X03046Y0069*
X03045Y0069*
X03044Y00691*
X03044Y00691*
X03043Y00691*
G54D59*
X02175Y00842D02*
D01*
X02175Y00843*
X02175Y00845*
X02174Y00846*
X02174Y00847*
X02174Y00849*
X02173Y0085*
X02172Y00851*
X02172Y00852*
X02171Y00854*
X0217Y00855*
X02169Y00856*
X02168Y00857*
X02167Y00858*
X02166Y00858*
X02165Y00859*
X02164Y0086*
X02162Y0086*
X02161Y00861*
X0216Y00861*
X02158Y00861*
X02157Y00862*
X02156Y00862*
X02154*
X02153Y00862*
X02152Y00861*
X0215Y00861*
X02149Y00861*
X02148Y0086*
X02146Y0086*
X02145Y00859*
X02144Y00858*
X02143Y00858*
X02142Y00857*
X02141Y00856*
X0214Y00855*
X02139Y00854*
X02138Y00852*
X02138Y00851*
X02137Y0085*
X02137Y00849*
X02136Y00847*
X02136Y00846*
X02136Y00845*
X02135Y00843*
X02135Y00842*
X02135Y00841*
X02136Y00839*
X02136Y00838*
X02136Y00837*
X02137Y00835*
X02137Y00834*
X02138Y00833*
X02138Y00832*
X02139Y0083*
X0214Y00829*
X02141Y00828*
X02142Y00827*
X02143Y00827*
X02144Y00826*
X02145Y00825*
X02146Y00824*
X02148Y00824*
X02149Y00823*
X0215Y00823*
X02152Y00823*
X02153Y00822*
X02154Y00822*
X02156*
X02157Y00822*
X02158Y00823*
X0216Y00823*
X02161Y00823*
X02162Y00824*
X02164Y00824*
X02165Y00825*
X02166Y00826*
X02167Y00827*
X02168Y00827*
X02169Y00828*
X0217Y00829*
X02171Y0083*
X02172Y00832*
X02172Y00833*
X02173Y00834*
X02174Y00835*
X02174Y00837*
X02174Y00838*
X02175Y00839*
X02175Y00841*
X02175Y00842*
X03047Y00917D02*
X03084D01*
X03047Y00848D02*
X03084D01*
Y00917*
X03047Y00848D02*
Y00917D01*
X02963Y00585D02*
X03D01*
X02963Y00516D02*
X03D01*
Y00585*
X02963Y00516D02*
Y00585D01*
X02372Y00614D02*
X02765D01*
Y00291D02*
Y00614D01*
X02372Y00291D02*
X02765D01*
X02372D02*
Y00614D01*
X02651Y0106D02*
Y0118D01*
X0272Y0106D02*
Y0118D01*
X02651D02*
X0272D01*
X02651Y0106D02*
X0272D01*
X02523Y01115D02*
X02561D01*
X02523Y01184D02*
X02561D01*
X02523Y01115D02*
Y01184D01*
X02561Y01115D02*
Y01184D01*
X02802Y01206D02*
Y01243D01*
X02734Y01206D02*
Y01243D01*
Y01206D02*
X02802D01*
X02734Y01243D02*
X02802D01*
X01781Y00654D02*
X01819D01*
X01781Y00723D02*
X01819D01*
X01781Y00654D02*
Y00723D01*
X01819Y00654D02*
Y00723D01*
X01781Y01245D02*
X01819D01*
X01781Y01313D02*
X01819D01*
X01781Y01245D02*
Y01313D01*
X01819Y01245D02*
Y01313D01*
X01231Y00654D02*
X01268D01*
X01231Y00723D02*
X01268D01*
X01231Y00654D02*
Y00723D01*
X01268Y00654D02*
Y00723D01*
X0123Y01254D02*
X01268D01*
X0123Y01323D02*
X01268D01*
X0123Y01254D02*
Y01323D01*
X01268Y01254D02*
Y01323D01*
X02121Y00807D02*
X02465D01*
X02121Y00964D02*
X02465D01*
X02121Y00807D02*
Y00964D01*
X02465Y00807D02*
Y00964D01*
X02058Y0093D02*
X02095D01*
X02058Y00999D02*
X02095D01*
X02058Y0093D02*
Y00999D01*
X02095Y0093D02*
Y00999D01*
X03682Y01215D02*
X03719D01*
X03682Y01146D02*
X03719D01*
Y01215*
X03682Y01146D02*
Y01215D01*
X0376D02*
X03798D01*
X0376Y01146D02*
X03798D01*
Y01215*
X0376Y01146D02*
Y01215D01*
X03705Y07038D02*
Y07075D01*
X03774Y07038D02*
Y07075D01*
X03705D02*
X03774D01*
X03705Y07038D02*
X03774D01*
X03705Y07107D02*
Y07144D01*
X03774Y07107D02*
Y07144D01*
X03705D02*
X03774D01*
X03705Y07107D02*
X03774D01*
X03705Y04125D02*
Y04162D01*
X03774Y04125D02*
Y04162D01*
X03705D02*
X03774D01*
X03705Y04125D02*
X03774D01*
X03705Y04056D02*
Y04093D01*
X03774Y04056D02*
Y04093D01*
X03705D02*
X03774D01*
X03705Y04056D02*
X03774D01*
X0349Y01488D02*
X03596D01*
Y01425D02*
Y01488D01*
X0349Y01425D02*
Y01488D01*
Y01425D02*
X03596D01*
X0349Y02433D02*
X03596D01*
Y0237D02*
Y02433D01*
X0349Y0237D02*
Y02433D01*
Y0237D02*
X03596D01*
X03475Y03377D02*
X03581D01*
Y03314D02*
Y03377D01*
X03475Y03314D02*
Y03377D01*
Y03314D02*
X03581D01*
X03475Y09288D02*
X03581D01*
X03475D02*
Y09351D01*
X03581Y09288D02*
Y09351D01*
X03475D02*
X03581D01*
X0349Y08343D02*
X03596D01*
X0349D02*
Y08406D01*
X03596Y08343D02*
Y08406D01*
X0349D02*
X03596D01*
X0349Y07398D02*
X03596D01*
X0349D02*
Y07461D01*
X03596Y07398D02*
Y07461D01*
X0349D02*
X03596D01*
X03475Y06296D02*
X03581D01*
X03475D02*
Y06359D01*
X03581Y06296D02*
Y06359D01*
X03475D02*
X03581D01*
X0349Y05351D02*
X03596D01*
X0349D02*
Y05414D01*
X03596Y05351D02*
Y05414D01*
X0349D02*
X03596D01*
X0349Y04406D02*
X03596D01*
X0349D02*
Y04469D01*
X03596Y04406D02*
Y04469D01*
X0349D02*
X03596D01*
G54D60*
X03053Y00602D02*
X03073D01*
X03053Y00557D02*
Y00602D01*
Y00557D02*
X03073D01*
Y00602*
X03103D02*
X03123D01*
X03103Y00557D02*
Y00602D01*
Y00557D02*
X03123D01*
Y00602*
X03153D02*
X03173D01*
X03153Y00557D02*
Y00602D01*
Y00557D02*
X03173D01*
Y00602*
X03203D02*
X03223D01*
X03203D02*
Y00557D01*
X03223*
Y00602*
X03253D02*
X03273D01*
X03253Y00557D02*
Y00602D01*
Y00557D02*
X03273D01*
Y00602*
X03303D02*
X03323D01*
X03303Y00557D02*
Y00602D01*
Y00557D02*
X03323D01*
Y00602D02*
Y00557D01*
X03353Y00602D02*
X03373D01*
X03353Y00557D02*
Y00602D01*
Y00557D02*
X03373D01*
Y00602*
X03403D02*
X03423D01*
X03403Y00557D02*
Y00602D01*
Y00557D02*
X03423D01*
Y00602D02*
Y00557D01*
X03403Y00755D02*
X03423D01*
Y00801*
X03403D02*
X03423D01*
X03403Y00755D02*
Y00801D01*
X03353Y00755D02*
X03373D01*
Y00801*
X03353D02*
X03373D01*
X03353Y00755D02*
Y00801D01*
X03303Y00755D02*
X03323D01*
Y00801*
X03303D02*
X03323D01*
X03303Y00755D02*
Y00801D01*
X03253Y00755D02*
X03273D01*
Y00801*
X03253D02*
X03273D01*
X03253Y00755D02*
Y00801D01*
X03203Y00755D02*
X03223D01*
Y00801*
X03203D02*
X03223D01*
X03203Y00755D02*
Y00801D01*
X03153Y00755D02*
X03173D01*
Y00801*
X03153D02*
X03173D01*
X03153Y00755D02*
Y00801D01*
X03103Y00755D02*
X03123D01*
Y00801*
X03103D02*
X03123D01*
X03103Y00755D02*
Y00801D01*
X03053Y00755D02*
X03073D01*
Y00801*
X03053D02*
X03073D01*
X03053Y00755D02*
Y00801D01*
X03433Y00602D02*
Y00755D01*
X03043D02*
X03433D01*
X03043Y00602D02*
Y00755D01*
Y00602D02*
X03433D01*
M02*