%FSTAX23Y23*%
%MOIN*%
%SFA1B1*%

%IPPOS*%
%AMD12*
4,1,8,-0.015700,0.008900,-0.015700,-0.008900,-0.013800,-0.010800,0.013800,-0.010800,0.015700,-0.008900,0.015700,0.008900,0.013800,0.010800,-0.013800,0.010800,-0.015700,0.008900,0.0*
1,1,0.003898,-0.013800,0.008900*
1,1,0.003898,-0.013800,-0.008900*
1,1,0.003898,0.013800,-0.008900*
1,1,0.003898,0.013800,0.008900*
%
%AMD15*
4,1,8,-0.009800,-0.028500,0.009800,-0.028500,0.011800,-0.026500,0.011800,0.026500,0.009800,0.028500,-0.009800,0.028500,-0.011800,0.026500,-0.011800,-0.026500,-0.009800,-0.028500,0.0*
1,1,0.004016,-0.009800,-0.026500*
1,1,0.004016,0.009800,-0.026500*
1,1,0.004016,0.009800,0.026500*
1,1,0.004016,-0.009800,0.026500*
%
%ADD10R,0.039370X0.035433*%
%ADD11R,0.022079X0.085874*%
G04~CAMADD=12~8~0.0~0.0~216.5~315.0~19.5~0.0~15~0.0~0.0~0.0~0.0~0~0.0~0.0~0.0~0.0~0~0.0~0.0~0.0~90.0~314.0~216.0*
%ADD12D12*%
%ADD13R,0.035433X0.039370*%
%ADD14R,0.037401X0.033465*%
G04~CAMADD=15~8~0.0~0.0~236.2~570.9~20.1~0.0~15~0.0~0.0~0.0~0.0~0~0.0~0.0~0.0~0.0~0~0.0~0.0~0.0~180.0~236.0~570.0*
%ADD15D15*%
%ADD16R,0.031496X0.031496*%
%ADD17R,0.033465X0.037401*%
%ADD18R,0.035433X0.031496*%
%ADD19R,0.035827X0.048031*%
%LNmain_paste_top-1*%
%LPD*%
G54D10*
X03065Y00909D03*
Y00856D03*
X02982Y00577D03*
Y00524D03*
X02542Y01123D03*
Y01176D03*
X02076Y00937D03*
Y00991D03*
X03779Y01207D03*
Y01154D03*
G54D11*
X03063Y00586D03*
X03113D03*
X03163D03*
X03213D03*
X03263D03*
X03313D03*
X03363D03*
X03413D03*
Y00772D03*
X03363D03*
X03313D03*
X03263D03*
X03213D03*
X03163D03*
X03113D03*
X03063D03*
G54D12*
X02635Y01157D03*
Y0112D03*
Y01082D03*
X02736D03*
Y01157D03*
G54D13*
X02795Y01224D03*
X02741D03*
X03713Y07125D03*
X03766D03*
X03713Y04074D03*
X03766D03*
G54D14*
X018Y00663D03*
Y00714D03*
Y01253D03*
Y01305D03*
X0125Y00663D03*
Y00714D03*
X01249Y01263D03*
Y01314D03*
X037Y01206D03*
Y01155D03*
G54D15*
X02143Y00778D03*
X02193D03*
X02243D03*
X02293D03*
X02343D03*
X02393D03*
X02443D03*
X02143Y00993D03*
X02193D03*
X02243D03*
X02293D03*
X02343D03*
X02393D03*
X02443D03*
G54D16*
X01742Y0072D03*
Y00657D03*
Y01311D03*
Y01248D03*
X0119Y0072D03*
Y00657D03*
Y01318D03*
Y01255D03*
G54D17*
X03714Y07057D03*
X03765D03*
X03714Y04143D03*
X03765D03*
G54D18*
X03858Y01218D03*
Y01143D03*
X03937Y01181D03*
Y07154D03*
X03858Y07117D03*
Y07192D03*
X03937Y04162D03*
X03858Y04125D03*
Y04199D03*
G54D19*
X03478Y01456D03*
X03607D03*
X03478Y02401D03*
X03607D03*
X03464Y03346D03*
X03593D03*
Y09319D03*
X03464D03*
X03607Y08375D03*
X03478D03*
X03607Y0743D03*
X03478D03*
X03593Y06327D03*
X03464D03*
X03607Y05382D03*
X03478D03*
X03607Y04438D03*
X03478D03*
M02*