%FSTAX23Y23*%
%MOIN*%
%SFA1B1*%

%IPPOS*%
%ADD46C,0.006000*%
%ADD59C,0.003937*%
%ADD62C,0.001969*%
%LNmain_mechanical_15-1*%
%LPD*%
G36*
X03434Y00592D02*
Y00533D01*
X03042*
Y00592*
X03033*
Y00765*
X03042*
Y00825*
X03434*
Y00765*
X03443*
Y00592*
X03434*
G37*
G54D46*
X03042Y00533D02*
X03434D01*
X03042D02*
Y00592D01*
X03033D02*
X03042D01*
X03033D02*
Y00765D01*
X03042*
Y00825D02*
Y00765D01*
Y00825D02*
X03434D01*
Y00765D02*
Y00825D01*
Y00765D02*
X03443D01*
Y00592D02*
Y00765D01*
X03434Y00592D02*
X03443D01*
X03434D02*
Y00533D01*
G54D59*
X03065Y00864D02*
Y00901D01*
X03047Y00883D02*
X03084D01*
X02982Y00532D02*
Y00569D01*
X02963Y00551D02*
X03D01*
X02549Y00452D02*
X02588D01*
X02568Y00433D02*
Y00472D01*
X02666Y0112D02*
X02705D01*
X02686Y011D02*
Y01139D01*
X02542Y01131D02*
Y01168D01*
X02523Y01149D02*
X02561D01*
X02749Y01224D02*
X02787D01*
X02768Y01206D02*
Y01243D01*
X018Y0067D02*
Y00707D01*
X01781Y00688D02*
X01819D01*
X018Y0126D02*
Y01298D01*
X01781Y01279D02*
X01819D01*
X0125Y0067D02*
Y00707D01*
X01231Y00688D02*
X01268D01*
X01249Y0127D02*
Y01308D01*
X0123Y01289D02*
X01268D01*
X02293Y00866D02*
Y00905D01*
X02273Y00885D02*
X02312D01*
X02076Y00945D02*
Y00983D01*
X02058Y00964D02*
X02095D01*
X037Y01162D02*
Y01199D01*
X03682Y01181D02*
X03719D01*
X03779Y01162D02*
Y01199D01*
X0376Y01181D02*
X03798D01*
X03721Y07057D02*
X03758D01*
X0374Y07038D02*
Y07075D01*
X03721Y07125D02*
X03758D01*
X0374Y07107D02*
Y07144D01*
X03721Y04143D02*
X03758D01*
X0374Y04125D02*
Y04162D01*
X03721Y04074D02*
X03758D01*
X0374Y04056D02*
Y04093D01*
X03523Y01456D02*
X03562D01*
X03543Y01437D02*
Y01476D01*
X03523Y02401D02*
X03562D01*
X03543Y02381D02*
Y02421D01*
X03509Y03346D02*
X03548D01*
X03528Y03326D02*
Y03366D01*
Y093D02*
Y09339D01*
X03509Y09319D02*
X03548D01*
X03543Y08355D02*
Y08394D01*
X03523Y08375D02*
X03562D01*
X03543Y0741D02*
Y07449D01*
X03523Y0743D02*
X03562D01*
X03528Y06308D02*
Y06347D01*
X03509Y06327D02*
X03548D01*
X03543Y05363D02*
Y05402D01*
X03523Y05382D02*
X03562D01*
X03543Y04418D02*
Y04457D01*
X03523Y04438D02*
X03562D01*
G54D62*
X03036Y00936D02*
X03095D01*
X03036Y00829D02*
X03095D01*
Y00936*
X03036Y00829D02*
Y00936D01*
X02952Y00604D02*
X03011D01*
X02952Y00498D02*
X03011D01*
Y00604*
X02952Y00498D02*
Y00604D01*
X02344Y00287D02*
X02769D01*
Y00618*
X02344D02*
X02769D01*
X02344Y00287D02*
Y00618D01*
X02617Y01055D02*
Y01185D01*
X02754Y01055D02*
Y01185D01*
X02617D02*
X02754D01*
X02617Y01055D02*
X02754D01*
X02513Y01096D02*
X02572Y01096D01*
X02513Y01203D02*
X02572D01*
X02513Y01096D02*
Y01203D01*
X02572Y01096D02*
Y01203D01*
X02821Y01195D02*
Y01254D01*
X02715D02*
Y01195D01*
X02821*
X02715Y01254D02*
X02821D01*
X01771Y00635D02*
X0183D01*
X01771Y00742D02*
X0183D01*
X01771Y00635D02*
Y00742D01*
X0183Y00635D02*
Y00742D01*
X01771Y01226D02*
X0183D01*
X01771Y01332D02*
X0183D01*
X01771Y01226D02*
Y01332D01*
X0183Y01226D02*
Y01332D01*
X0122Y00635D02*
X01279D01*
X0122Y00742D02*
X01279D01*
X0122Y00635D02*
Y00742D01*
X01279Y00635D02*
Y00742D01*
X01219Y01236D02*
X01278D01*
X01219Y01342D02*
X01278D01*
X01219Y01236D02*
Y01342D01*
X01278Y01236D02*
Y01342D01*
X02111Y0074D02*
X02475D01*
X02111Y01031D02*
X02475D01*
X02111Y0074D02*
Y01031D01*
X02475Y0074D02*
Y01031D01*
X02047Y00911D02*
X02106D01*
X02047Y01017D02*
X02106D01*
X02047Y00911D02*
Y01017D01*
X02106Y00911D02*
Y01017D01*
X03671Y01234D02*
X0373D01*
X03671Y01127D02*
X0373D01*
Y01234*
X03671Y01127D02*
Y01234D01*
X0375D02*
X03809D01*
X0375Y01127D02*
X03809D01*
Y01234*
X0375Y01127D02*
Y01234D01*
X03687Y07027D02*
Y07086D01*
X03793Y07027D02*
Y07086D01*
X03687D02*
X03793D01*
X03687Y07027D02*
X03793D01*
X03687Y07096D02*
Y07155D01*
X03793Y07096D02*
Y07155D01*
X03687D02*
X03793D01*
X03687Y07096D02*
X03793D01*
X03687Y04114D02*
Y04173D01*
X03793Y04114D02*
Y04173D01*
X03687D02*
X03793D01*
X03687Y04114D02*
X03793D01*
X03687Y04045D02*
Y04104D01*
X03793Y04045D02*
Y04104D01*
X03687D02*
X03793D01*
X03687Y04045D02*
X03793D01*
X03457Y01492D02*
X03629D01*
Y01421D02*
Y01492D01*
X03457Y01421D02*
Y01492D01*
Y01421D02*
X03629D01*
X03457Y02437D02*
X03629D01*
Y02366D02*
Y02437D01*
X03457Y02366D02*
Y02437D01*
Y02366D02*
X03629D01*
X03442Y03381D02*
X03615D01*
Y03311D02*
Y03381D01*
X03442Y03311D02*
Y03381D01*
Y03311D02*
X03615D01*
X03442Y09284D02*
X03615D01*
X03442D02*
Y09355D01*
X03615Y09284D02*
Y09355D01*
X03442D02*
X03615D01*
X03457Y08339D02*
X03629D01*
X03457D02*
Y0841D01*
X03629Y08339D02*
Y0841D01*
X03457D02*
X03629D01*
X03457Y07394D02*
X03629D01*
X03457D02*
Y07465D01*
X03629Y07394D02*
Y07465D01*
X03457D02*
X03629D01*
X03442Y06292D02*
X03615D01*
X03442D02*
Y06363D01*
X03615Y06292D02*
Y06363D01*
X03442D02*
X03615D01*
X03457Y05347D02*
X03629D01*
X03457D02*
Y05418D01*
X03629Y05347D02*
Y05418D01*
X03457D02*
X03629D01*
X03457Y04402D02*
X03629D01*
X03457D02*
Y04473D01*
X03629Y04402D02*
Y04473D01*
X03457D02*
X03629D01*
M02*