%FSTAX23Y23*%
%MOIN*%
%SFA1B1*%

%IPPOS*%
%ADD47C,0.007874*%
%LNmain_mechanical_5-1*%
%LPD*%
G36*
X03458Y0084D02*
Y00518D01*
X03018*
Y0084*
X03458*
G37*
G36*
X04035Y01205D02*
X04035Y01205D01*
X04035Y01205*
X04036Y01205*
X04037Y01205*
X04037Y01204*
X04038Y01204*
X04038*
X04038Y01204*
X04038Y01204*
X04038Y01204*
X04038Y01204*
X04039Y01204*
X04039Y01203*
X0404Y01203*
X0404Y01202*
X04041Y01202*
Y01202*
X04041Y01202*
X04041Y01202*
X04041Y01201*
X04041Y01201*
X04041Y01201*
X04041Y01201*
X04041Y012*
X04041Y012*
X04041Y01199*
X04042Y01198*
Y01198*
Y01198*
Y01198*
Y01198*
X04041Y01198*
X04041Y01198*
X04041Y01197*
X04041Y01197*
X04041Y01196*
X04041Y01196*
Y01195*
X04041Y01195*
X0404Y01195*
X0404Y01195*
X0404Y01195*
X0404Y01194*
X04039Y01194*
X04039Y01194*
X04038Y01193*
X04038*
X04038Y01193*
X04038Y01193*
X04038Y01193*
X04039Y01193*
X04039Y01193*
X04039Y01193*
X0404Y01193*
X0404Y01192*
X04041Y01192*
X04041Y01191*
X04042Y01191*
X04042Y01191*
X04042Y01191*
X04042Y01191*
X04042Y01191*
X04042Y01191*
X04042Y0119*
X04042Y0119*
X04042Y0119*
X04042Y0119*
X04043Y01189*
X04043Y01188*
X04043Y01188*
Y01187*
Y01187*
Y01187*
X04043Y01187*
Y01187*
X04043Y01186*
X04043Y01186*
X04043Y01186*
X04042Y01185*
X04042Y01185*
X04042Y01184*
X04042Y01184*
X04042Y01183*
X04041Y01183*
X04041Y01183*
X04041Y01182*
X0404Y01182*
X0404Y01182*
X0404Y01181*
X0404Y01181*
X0404Y01181*
X0404Y01181*
X04039Y01181*
X04039Y01181*
X04039Y0118*
X04038Y0118*
X04038Y0118*
X04037Y0118*
X04037Y0118*
X04036Y0118*
X04036Y01179*
X04035Y01179*
X04034Y01179*
X04034*
X04034Y01179*
X04034*
X04033Y01179*
X04033Y01179*
X04033Y01179*
X04032Y0118*
X04032Y0118*
X04031Y0118*
X04031Y0118*
X0403Y0118*
X0403Y0118*
X0403Y01181*
X04029Y01181*
X04029Y01181*
X04029Y01181*
X04029Y01181*
X04029Y01181*
X04028Y01182*
X04028Y01182*
X04028Y01182*
X04028Y01182*
X04028Y01183*
X04027Y01183*
X04027Y01183*
X04027Y01184*
X04027Y01184*
X04027Y01185*
X04026Y01185*
X04026Y01186*
X04026Y01186*
X04029Y01187*
Y01187*
X04029Y01187*
X04029Y01187*
X04029Y01186*
X04029Y01186*
X0403Y01186*
X0403Y01185*
X0403Y01185*
X0403Y01184*
X04031Y01184*
X04031Y01183*
X04031Y01183*
X04031*
X04031Y01183*
X04031Y01183*
X04031Y01183*
X04032Y01183*
X04032Y01182*
X04032Y01182*
X04033Y01182*
X04034Y01182*
X04034Y01182*
X04034*
X04035Y01182*
X04035Y01182*
X04035Y01182*
X04036Y01182*
X04036Y01182*
X04037Y01183*
X04037Y01183*
X04037Y01183*
X04038Y01183*
X04038Y01183*
X04038Y01183*
X04038Y01183*
X04038Y01184*
X04038Y01184*
X04038Y01184*
X04038Y01184*
X04039Y01184*
X04039Y01184*
X04039Y01185*
X04039Y01186*
X04039Y01186*
X04039Y01187*
X04039Y01187*
Y01187*
Y01187*
Y01187*
X04039Y01187*
X04039Y01188*
X04039Y01188*
X04039Y01188*
X04039Y01189*
X04039Y0119*
X04039Y0119*
X04038Y0119*
X04038Y0119*
X04038Y01191*
X04038Y01191*
X04038Y01191*
X04038Y01191*
X04038Y01191*
X04038Y01191*
X04037Y01191*
X04037Y01191*
X04037Y01192*
X04036Y01192*
X04035Y01192*
X04035Y01192*
X04035Y01192*
X04034*
X04034Y01192*
X04034*
X04034Y01192*
X04033Y01192*
X04033Y01192*
X04032Y01192*
X04033Y01194*
X04033*
X04033Y01194*
X04033Y01194*
X04033*
X04034Y01194*
X04034*
X04034Y01194*
X04034Y01194*
X04035Y01195*
X04035Y01195*
X04036Y01195*
X04037Y01195*
X04037*
X04037Y01195*
X04037Y01195*
X04037Y01196*
X04037Y01196*
X04038Y01196*
X04038Y01197*
X04038Y01197*
X04038Y01197*
X04038Y01198*
X04038Y01198*
X04038Y01199*
Y01199*
Y01199*
Y01199*
X04038Y01199*
X04038Y01199*
X04038Y012*
X04038Y012*
X04038Y012*
X04038Y01201*
X04037Y01201*
X04037Y01201*
X04037Y01201*
X04037Y01202*
X04037Y01202*
X04036Y01202*
X04036Y01202*
X04035Y01202*
X04035Y01202*
X04034Y01203*
X04034*
X04034Y01202*
X04034*
X04034Y01202*
X04033Y01202*
X04033Y01202*
X04032Y01202*
X04032Y01202*
X04031Y01201*
X04031Y01201*
X04031Y01201*
X04031Y01201*
X04031Y01201*
X0403Y012*
X0403Y01199*
X0403Y01199*
X0403Y01198*
X04027Y01199*
Y01199*
X04027Y01199*
X04027Y01199*
X04027Y01199*
X04027Y01199*
X04027Y012*
X04027Y012*
X04027Y012*
X04027Y01201*
X04028Y01201*
X04028Y01202*
X04028Y01202*
X04028Y01203*
X04029Y01203*
X04029Y01203*
X04029Y01203*
X04029Y01203*
X04029Y01203*
X04029Y01204*
X0403Y01204*
X0403Y01204*
X0403Y01204*
X0403Y01204*
X04031Y01204*
X04031Y01205*
X04032Y01205*
X04032Y01205*
X04033Y01205*
X04033Y01205*
X04034Y01205*
X04034Y01205*
X04034*
X04035Y01205*
G37*
G36*
X03971Y01198D02*
X03971D01*
X03972Y01198*
X03972Y01198*
X03973Y01198*
X03974Y01198*
X03974Y01198*
X03974*
X03974Y01198*
X03974Y01198*
X03975Y01198*
X03975Y01198*
X03975Y01197*
X03976Y01197*
X03976Y01197*
X03976Y01197*
X03977Y01196*
X03977Y01196*
X03977Y01196*
X03977Y01196*
X03977Y01195*
X03977Y01195*
X03977Y01194*
X03978Y01194*
X03978Y01193*
X03975Y01193*
Y01193*
Y01193*
X03975Y01193*
X03975Y01193*
X03975Y01194*
X03974Y01194*
X03974Y01194*
X03974Y01195*
X03974Y01195*
X03973Y01195*
X03973Y01195*
X03973Y01195*
X03973Y01195*
X03972Y01196*
X03972Y01196*
X03971Y01196*
X03971Y01196*
X0397*
X0397Y01196*
X0397*
X0397Y01196*
X03969Y01196*
X03969Y01196*
X03968Y01195*
X03968Y01195*
X03968Y01195*
X03968Y01195*
X03968Y01195*
X03967Y01195*
X03967Y01195*
X03967Y01194*
X03967Y01194*
X03967Y01194*
X03967Y01194*
Y01194*
Y01193*
X03967Y01193*
X03967Y01193*
X03967Y01193*
X03967Y01193*
X03967Y01192*
X03967Y01192*
X03967Y01192*
X03967Y01192*
X03967Y01192*
X03968Y01192*
X03968Y01192*
X03968Y01192*
X03968Y01192*
X03968*
X03968Y01192*
X03969Y01192*
X03969Y01191*
X03969Y01191*
X03969Y01191*
X03969Y01191*
X0397Y01191*
X0397Y01191*
X0397Y01191*
X03971Y01191*
X03971Y01191*
X03971*
X03971Y01191*
X03971Y01191*
X03972Y01191*
X03972Y01191*
X03972Y01191*
X03973Y0119*
X03973Y0119*
X03974Y0119*
X03974Y0119*
X03975Y0119*
X03975Y0119*
X03975Y01189*
X03976Y01189*
X03976*
X03976Y01189*
X03976Y01189*
X03976Y01189*
X03976Y01189*
X03977Y01189*
X03977Y01188*
X03977Y01188*
X03978Y01188*
X03978Y01188*
X03978Y01188*
X03978Y01187*
X03978Y01187*
X03978Y01187*
X03978Y01186*
X03978Y01186*
X03978Y01185*
Y01185*
Y01185*
Y01185*
Y01185*
X03978Y01185*
X03978Y01184*
X03978Y01184*
X03978Y01183*
X03978Y01183*
X03978Y01182*
Y01182*
X03977Y01182*
X03977Y01182*
X03977Y01182*
X03977Y01181*
X03976Y01181*
X03976Y01181*
X03976Y0118*
X03975Y0118*
X03975*
X03975Y0118*
X03975Y0118*
X03975Y0118*
X03974Y0118*
X03974Y0118*
X03974Y0118*
X03974Y0118*
X03973Y0118*
X03973Y01179*
X03972Y01179*
X03971Y01179*
X03971*
X0397Y01179*
X0397Y01179*
X0397Y01179*
X03969Y01179*
X03969Y0118*
X03968Y0118*
X03967Y0118*
X03967Y0118*
X03966Y0118*
X03966Y01181*
X03966Y01181*
X03966Y01181*
X03966Y01181*
X03965Y01181*
X03965Y01181*
X03965Y01181*
X03965Y01181*
X03965Y01182*
X03965Y01182*
X03964Y01182*
X03964Y01183*
X03964Y01183*
X03964Y01183*
X03964Y01184*
X03964Y01184*
X03963Y01185*
X03963Y01185*
X03966Y01186*
Y01186*
X03966Y01186*
Y01186*
X03966Y01185*
X03966Y01185*
X03966Y01185*
X03967Y01185*
X03967Y01184*
X03967Y01184*
X03967Y01183*
X03968Y01183*
X03968*
X03968Y01183*
X03968Y01183*
X03968Y01183*
X03969Y01182*
X03969Y01182*
X0397Y01182*
X0397Y01182*
X03971Y01182*
X03971*
X03971Y01182*
X03972*
X03972Y01182*
X03972Y01182*
X03973Y01182*
X03973Y01182*
X03974Y01182*
X03974Y01183*
X03974Y01183*
X03974Y01183*
X03975Y01183*
X03975Y01183*
X03975Y01184*
X03975Y01184*
X03975Y01184*
X03975Y01185*
Y01185*
Y01185*
X03975Y01185*
X03975Y01185*
X03975Y01186*
X03975Y01186*
X03975Y01186*
X03974Y01186*
X03974Y01186*
X03974Y01187*
X03974Y01187*
X03974Y01187*
X03974Y01187*
X03973Y01187*
X03973Y01187*
X03973Y01187*
X03973Y01187*
X03972Y01187*
X03972Y01187*
X03972Y01187*
X03971Y01187*
X03971*
X03971Y01188*
X03971Y01188*
X03971Y01188*
X0397Y01188*
X0397Y01188*
X0397Y01188*
X03969Y01188*
X03969Y01188*
X03968Y01189*
X03967Y01189*
X03967Y01189*
X03967Y01189*
X03966Y01189*
X03966*
X03966Y01189*
X03966Y01189*
X03966Y01189*
X03966Y01189*
X03965Y0119*
X03965Y0119*
X03965Y0119*
X03964Y01191*
X03964Y01191*
X03964Y01191*
X03964Y01191*
X03964Y01191*
X03964Y01192*
X03964Y01192*
X03964Y01193*
X03964Y01193*
Y01193*
Y01193*
Y01193*
X03964Y01194*
X03964Y01194*
X03964Y01194*
X03964Y01195*
X03964Y01195*
X03964Y01195*
X03964Y01195*
X03964Y01196*
X03965Y01196*
X03965Y01196*
X03965Y01196*
X03965Y01197*
X03965Y01197*
X03966Y01197*
X03966Y01197*
X03966Y01197*
X03966Y01197*
X03966Y01197*
X03967Y01198*
X03967Y01198*
X03967Y01198*
X03968Y01198*
X03968*
X03968Y01198*
X03968Y01198*
X03968Y01198*
X03969Y01198*
X03969Y01198*
X03969Y01198*
X0397Y01198*
X0397Y01198*
X03971*
X03971Y01198*
G37*
G36*
X03999Y0118D02*
X03996D01*
X03993Y01191*
X03992Y01194*
X03989Y0118*
X03985*
X0398Y01198*
X03983*
X03986Y01187*
X03987Y01184*
Y01184*
X03987Y01184*
X03987Y01184*
Y01184*
X03987Y01184*
X03987Y01184*
X03987Y01184*
X03987Y01185*
X03987Y01185*
X03987Y01185*
X03988Y01186*
X03988Y01186*
X03988Y01187*
X03988Y01187*
X03991Y01198*
X03994*
X03997Y01187*
X03998Y01184*
X03999Y01187*
X04002Y01198*
X04005*
X03999Y0118*
G37*
G36*
X03936D02*
X03933D01*
Y01199*
X03933Y01199*
X03933Y01199*
X03933Y01199*
X03932Y01199*
X03932Y01198*
X03931Y01198*
X03931Y01198*
X0393Y01197*
X0393*
X0393Y01197*
X0393Y01197*
X0393Y01197*
X0393Y01197*
X03929Y01197*
X03929Y01197*
X03929Y01196*
X03928Y01196*
X03927Y01196*
X03927Y01196*
Y01199*
X03927Y01199*
X03927Y01199*
X03927Y01199*
X03927Y01199*
X03927Y01199*
X03928Y01199*
X03928Y01199*
X03928Y012*
X03929Y012*
X0393Y012*
X03931Y01201*
X03931Y01202*
X03931Y01202*
X03931Y01202*
X03932Y01202*
X03932Y01202*
X03932Y01202*
X03932Y01202*
X03932Y01203*
X03933Y01203*
X03933Y01204*
X03934Y01204*
X03934Y01205*
X03936*
Y0118*
G37*
G36*
X0391Y01205D02*
X0391Y01205D01*
X0391Y01205*
X03911Y01205*
X03911Y01205*
X03912Y01205*
X03912Y01205*
X03913Y01205*
X03913Y01205*
X03914Y01205*
X03914Y01204*
X03915Y01204*
X03915Y01204*
X03916Y01204*
X03916Y01204*
X03916Y01204*
X03916Y01203*
X03916Y01203*
X03916Y01203*
X03917Y01203*
X03917Y01203*
X03917Y01202*
X03918Y01202*
X03918Y01202*
X03918Y01201*
X03919Y01201*
X03919Y012*
X03919Y012*
X0392Y01199*
X0392Y01199*
X0392Y01199*
X0392Y01199*
X0392Y01199*
X0392Y01198*
X0392Y01198*
X0392Y01198*
X03921Y01197*
X03921Y01197*
X03921Y01196*
X03921Y01196*
X03921Y01195*
X03921Y01194*
X03921Y01194*
X03921Y01193*
X03921Y01192*
Y01192*
Y01192*
Y01192*
X03921Y01192*
Y01192*
X03921Y01191*
X03921Y01191*
X03921Y01191*
X03921Y0119*
X03921Y0119*
X03921Y01189*
X03921Y01188*
X0392Y01187*
Y01187*
X0392Y01187*
X0392Y01187*
X0392Y01186*
X0392Y01186*
X0392Y01186*
X0392Y01186*
X0392Y01185*
X03919Y01185*
X03919Y01184*
X03918Y01183*
X03917Y01182*
X03917Y01182*
X03918Y01182*
X03918Y01182*
X03918Y01182*
X03918Y01182*
X03918Y01182*
X03919Y01182*
X03919Y01182*
X03919Y01181*
X0392Y01181*
X03921Y0118*
X03922Y0118*
X03921Y01178*
X03921*
X03921Y01178*
X0392Y01178*
X0392Y01178*
X0392Y01178*
X0392Y01178*
X03919Y01178*
X03919Y01179*
X03919Y01179*
X03918Y01179*
X03917Y0118*
X03916Y0118*
X03915Y01181*
X03915Y01181*
X03915Y01181*
X03915Y01181*
X03915Y01181*
X03915Y01181*
X03914Y0118*
X03914Y0118*
X03913Y0118*
X03913Y0118*
X03913Y0118*
X03912Y0118*
X03912Y0118*
X0391Y01179*
X0391Y01179*
X03909Y01179*
X03909*
X03909Y01179*
X03908Y01179*
X03908Y01179*
X03908Y01179*
X03907Y0118*
X03907Y0118*
X03906Y0118*
X03906Y0118*
X03905Y0118*
X03905Y0118*
X03904Y0118*
X03903Y01181*
X03903Y01181*
X03903Y01181*
X03903Y01181*
X03903Y01181*
X03902Y01181*
X03902Y01181*
X03902Y01182*
X03902Y01182*
X03901Y01182*
X03901Y01183*
X03901Y01183*
X039Y01183*
X039Y01184*
X039Y01184*
X03899Y01185*
X03899Y01185*
X03899Y01186*
X03899Y01186*
X03899Y01186*
X03899Y01186*
X03898Y01186*
X03898Y01186*
X03898Y01187*
X03898Y01187*
X03898Y01188*
X03898Y01188*
X03898Y01189*
X03897Y01189*
X03897Y0119*
X03897Y0119*
X03897Y01191*
X03897Y01192*
X03897Y01192*
Y01192*
Y01193*
Y01193*
X03897Y01193*
X03897Y01193*
X03897Y01194*
X03897Y01194*
X03897Y01195*
X03897Y01195*
X03897Y01196*
X03898Y01197*
X03898Y01197*
X03898Y01198*
X03898Y01199*
X03899Y01199*
X03899Y01199*
X03899Y01199*
X03899Y01199*
X03899Y012*
X03899Y012*
X03899Y012*
X03899Y01201*
X039Y01201*
X039Y01201*
X039Y01202*
X03901Y01202*
X03901Y01202*
X03902Y01203*
X03902Y01203*
X03902Y01203*
X03903Y01204*
X03903Y01204*
X03903Y01204*
X03903Y01204*
X03903Y01204*
X03904Y01204*
X03904Y01204*
X03904Y01204*
X03905Y01205*
X03905Y01205*
X03906Y01205*
X03906Y01205*
X03907Y01205*
X03907Y01205*
X03908Y01205*
X03909Y01205*
X03909Y01205*
X0391*
X0391Y01205*
G37*
G36*
X04025Y01173D02*
X04005D01*
Y01175*
X04025*
Y01173*
G37*
G36*
X03963D02*
X03942D01*
Y01175*
X03963*
Y01173*
G37*
G36*
X03971Y07172D02*
X03971D01*
X03972Y07172*
X03972Y07172*
X03973Y07172*
X03974Y07172*
X03974Y07171*
X03974*
X03974Y07171*
X03974Y07171*
X03975Y07171*
X03975Y07171*
X03975Y07171*
X03976Y07171*
X03976Y0717*
X03976Y0717*
X03977Y0717*
X03977Y0717*
X03977Y07169*
X03977Y07169*
X03977Y07169*
X03977Y07168*
X03977Y07168*
X03978Y07167*
X03978Y07167*
X03975Y07166*
Y07166*
Y07166*
X03975Y07167*
X03975Y07167*
X03975Y07167*
X03974Y07168*
X03974Y07168*
X03974Y07168*
X03974Y07169*
X03973Y07169*
X03973Y07169*
X03973Y07169*
X03973Y07169*
X03972Y07169*
X03972Y07169*
X03971Y07169*
X03971Y07169*
X0397*
X0397Y07169*
X0397*
X0397Y07169*
X03969Y07169*
X03969Y07169*
X03968Y07169*
X03968Y07169*
X03968Y07169*
X03968Y07169*
X03968Y07169*
X03967Y07168*
X03967Y07168*
X03967Y07168*
X03967Y07168*
X03967Y07167*
X03967Y07167*
Y07167*
Y07167*
X03967Y07167*
X03967Y07167*
X03967Y07166*
X03967Y07166*
X03967Y07166*
X03967Y07166*
X03967Y07166*
X03967Y07166*
X03967Y07166*
X03968Y07166*
X03968Y07165*
X03968Y07165*
X03968Y07165*
X03968*
X03968Y07165*
X03969Y07165*
X03969Y07165*
X03969Y07165*
X03969Y07165*
X03969Y07165*
X0397Y07165*
X0397Y07165*
X0397Y07165*
X03971Y07164*
X03971Y07164*
X03971*
X03971Y07164*
X03971Y07164*
X03972Y07164*
X03972Y07164*
X03972Y07164*
X03973Y07164*
X03973Y07164*
X03974Y07164*
X03974Y07163*
X03975Y07163*
X03975Y07163*
X03975Y07163*
X03976Y07163*
X03976*
X03976Y07163*
X03976Y07163*
X03976Y07163*
X03976Y07162*
X03977Y07162*
X03977Y07162*
X03977Y07162*
X03978Y07161*
X03978Y07161*
X03978Y07161*
X03978Y07161*
X03978Y07161*
X03978Y0716*
X03978Y0716*
X03978Y07159*
X03978Y07159*
Y07159*
Y07159*
Y07158*
Y07158*
X03978Y07158*
X03978Y07158*
X03978Y07157*
X03978Y07157*
X03978Y07156*
X03978Y07156*
Y07156*
X03977Y07156*
X03977Y07155*
X03977Y07155*
X03977Y07155*
X03976Y07155*
X03976Y07154*
X03976Y07154*
X03975Y07154*
X03975*
X03975Y07154*
X03975Y07154*
X03975Y07153*
X03974Y07153*
X03974Y07153*
X03974Y07153*
X03974Y07153*
X03973Y07153*
X03973Y07153*
X03972Y07153*
X03971Y07153*
X03971*
X0397Y07153*
X0397Y07153*
X0397Y07153*
X03969Y07153*
X03969Y07153*
X03968Y07153*
X03967Y07153*
X03967Y07154*
X03966Y07154*
X03966Y07154*
X03966Y07154*
X03966Y07154*
X03966Y07154*
X03965Y07154*
X03965Y07155*
X03965Y07155*
X03965Y07155*
X03965Y07155*
X03965Y07155*
X03964Y07156*
X03964Y07156*
X03964Y07156*
X03964Y07157*
X03964Y07157*
X03964Y07158*
X03963Y07158*
X03963Y07159*
X03966Y07159*
Y07159*
X03966Y07159*
Y07159*
X03966Y07159*
X03966Y07159*
X03966Y07159*
X03967Y07158*
X03967Y07158*
X03967Y07157*
X03967Y07157*
X03968Y07156*
X03968*
X03968Y07156*
X03968Y07156*
X03968Y07156*
X03969Y07156*
X03969Y07156*
X0397Y07156*
X0397Y07155*
X03971Y07155*
X03971*
X03971Y07155*
X03972*
X03972Y07155*
X03972Y07156*
X03973Y07156*
X03973Y07156*
X03974Y07156*
X03974Y07156*
X03974Y07156*
X03974Y07156*
X03975Y07157*
X03975Y07157*
X03975Y07157*
X03975Y07157*
X03975Y07158*
X03975Y07158*
Y07158*
Y07158*
X03975Y07159*
X03975Y07159*
X03975Y07159*
X03975Y07159*
X03975Y0716*
X03974Y0716*
X03974Y0716*
X03974Y0716*
X03974Y0716*
X03974Y0716*
X03974Y0716*
X03973Y0716*
X03973Y0716*
X03973Y0716*
X03973Y07161*
X03972Y07161*
X03972Y07161*
X03972Y07161*
X03971Y07161*
X03971*
X03971Y07161*
X03971Y07161*
X03971Y07161*
X0397Y07161*
X0397Y07161*
X0397Y07161*
X03969Y07162*
X03969Y07162*
X03968Y07162*
X03967Y07162*
X03967Y07162*
X03967Y07162*
X03966Y07163*
X03966*
X03966Y07163*
X03966Y07163*
X03966Y07163*
X03966Y07163*
X03965Y07163*
X03965Y07163*
X03965Y07164*
X03964Y07164*
X03964Y07164*
X03964Y07164*
X03964Y07165*
X03964Y07165*
X03964Y07165*
X03964Y07166*
X03964Y07166*
X03964Y07167*
Y07167*
Y07167*
Y07167*
X03964Y07167*
X03964Y07167*
X03964Y07168*
X03964Y07168*
X03964Y07169*
X03964Y07169*
X03964Y07169*
X03964Y07169*
X03965Y07169*
X03965Y0717*
X03965Y0717*
X03965Y0717*
X03965Y0717*
X03966Y07171*
X03966Y07171*
X03966Y07171*
X03966Y07171*
X03966Y07171*
X03967Y07171*
X03967Y07171*
X03967Y07171*
X03968Y07172*
X03968*
X03968Y07172*
X03968Y07172*
X03968Y07172*
X03969Y07172*
X03969Y07172*
X03969Y07172*
X0397Y07172*
X0397Y07172*
X03971*
X03971Y07172*
G37*
G36*
X03999Y07153D02*
X03996D01*
X03993Y07164*
X03992Y07167*
X03989Y07153*
X03985*
X0398Y07172*
X03983*
X03986Y07161*
X03987Y07157*
Y07157*
X03987Y07157*
X03987Y07157*
Y07157*
X03987Y07157*
X03987Y07158*
X03987Y07158*
X03987Y07158*
X03987Y07158*
X03987Y07159*
X03988Y07159*
X03988Y0716*
X03988Y0716*
X03988Y07161*
X03991Y07172*
X03994*
X03997Y07161*
X03998Y07157*
X03999Y07161*
X04002Y07172*
X04005*
X03999Y07153*
G37*
G36*
X04035Y07179D02*
X04035Y07178D01*
X04036Y07178*
X04036Y07178*
X04037Y07178*
X04037Y07178*
X04038Y07178*
X04038Y07178*
X04039Y07178*
X04039Y07177*
X04039Y07177*
X0404Y07177*
X0404Y07177*
X0404Y07177*
X0404Y07176*
X04041Y07176*
X04041Y07176*
X04041Y07176*
X04041Y07176*
X04041Y07175*
X04041Y07175*
X04042Y07175*
X04042Y07174*
X04042Y07174*
X04042Y07174*
X04042Y07173*
X04042Y07173*
X04042Y07172*
X04042Y07172*
Y07172*
Y07171*
Y07171*
Y07171*
X04042Y07171*
X04042Y07171*
X04042Y0717*
X04042Y0717*
X04042Y07169*
X04042Y07169*
Y07169*
X04042Y07169*
X04042Y07168*
X04042Y07168*
X04042Y07168*
X04041Y07168*
X04041Y07167*
X04041Y07167*
X0404Y07166*
X0404Y07166*
X0404Y07165*
X0404Y07165*
X0404Y07165*
X04039Y07165*
X04039Y07165*
X04039Y07165*
X04039Y07165*
X04039Y07164*
X04038Y07164*
X04038Y07164*
X04038Y07163*
X04037Y07163*
X04037Y07163*
X04036Y07162*
X04036Y07162*
X04035Y07161*
X04035Y07161*
X04035Y07161*
X04035Y07161*
X04035Y07161*
X04034Y07161*
X04034Y0716*
X04033Y0716*
X04033Y07159*
X04032Y07159*
X04032Y07158*
X04032Y07158*
X04032Y07158*
X04031Y07158*
X04031Y07158*
X04031Y07158*
X04031Y07158*
X04031Y07157*
X04031Y07157*
X0403Y07157*
X0403Y07156*
X04042*
Y07153*
X04026*
Y07153*
Y07153*
Y07154*
X04026Y07154*
X04026Y07154*
X04026Y07155*
X04026Y07155*
X04026Y07155*
Y07155*
X04026Y07155*
X04026Y07156*
X04026Y07156*
X04026Y07156*
X04026Y07156*
X04027Y07156*
X04027Y07157*
X04027Y07158*
X04028Y07158*
X04028Y07159*
X04028Y07159*
X04028Y07159*
X04028Y07159*
X04028Y07159*
X04029Y07159*
X04029Y07159*
X04029Y0716*
X04029Y0716*
X04029Y0716*
X0403Y0716*
X0403Y07161*
X0403Y07161*
X04031Y07161*
X04031Y07162*
X04032Y07162*
X04032Y07163*
X04032Y07163*
X04032Y07163*
X04033Y07163*
X04033Y07163*
X04033Y07163*
X04034Y07164*
X04034Y07164*
X04034Y07164*
X04035Y07165*
X04036Y07166*
X04037Y07167*
X04037Y07167*
X04038Y07168*
X04038Y07168*
X04038Y07168*
X04038Y07168*
X04038Y07168*
X04038Y07168*
X04038Y07168*
X04038Y07169*
X04039Y07169*
X04039Y0717*
X04039Y0717*
X04039Y07171*
X04039Y07171*
X04039Y07172*
Y07172*
Y07172*
Y07172*
X04039Y07172*
Y07172*
X04039Y07172*
X04039Y07173*
X04039Y07173*
X04039Y07174*
X04039Y07174*
X04038Y07174*
X04038Y07174*
X04038Y07175*
X04038Y07175*
X04038Y07175*
X04038Y07175*
X04038Y07175*
X04038Y07175*
X04037Y07175*
X04037Y07175*
X04037Y07176*
X04036Y07176*
X04035Y07176*
X04035Y07176*
X04034*
X04034Y07176*
X04034*
X04034Y07176*
X04033Y07176*
X04033Y07176*
X04032Y07175*
X04032Y07175*
X04031Y07175*
X04031Y07175*
X04031Y07175*
X04031Y07175*
X04031Y07175*
X04031Y07174*
X04031Y07174*
X04031Y07174*
X0403Y07174*
X0403Y07174*
X0403Y07174*
X0403Y07173*
X0403Y07173*
X0403Y07172*
X0403Y07172*
X0403Y07171*
X0403Y07171*
X04026Y07171*
Y07171*
X04026Y07171*
X04026Y07172*
X04026Y07172*
X04027Y07172*
X04027Y07172*
X04027Y07173*
X04027Y07173*
X04027Y07174*
X04027Y07174*
X04027Y07175*
X04028Y07175*
X04028Y07175*
X04028Y07176*
X04028Y07176*
X04029Y07177*
X04029Y07177*
X04029Y07177*
X04029Y07177*
X04029Y07177*
X04029Y07177*
X0403Y07177*
X0403Y07177*
X0403Y07178*
X04031Y07178*
X04031Y07178*
X04032Y07178*
X04032Y07178*
X04033Y07178*
X04033Y07178*
X04034Y07179*
X04035Y07179*
X04035*
X04035Y07179*
G37*
G36*
X03936Y07153D02*
X03933D01*
Y07173*
X03933Y07173*
X03933Y07173*
X03933Y07173*
X03932Y07172*
X03932Y07172*
X03931Y07172*
X03931Y07171*
X0393Y07171*
X0393*
X0393Y07171*
X0393Y07171*
X0393Y07171*
X0393Y07171*
X03929Y0717*
X03929Y0717*
X03929Y0717*
X03928Y0717*
X03927Y07169*
X03927Y07169*
Y07172*
X03927Y07172*
X03927Y07172*
X03927Y07172*
X03927Y07172*
X03927Y07173*
X03928Y07173*
X03928Y07173*
X03928Y07173*
X03929Y07173*
X0393Y07174*
X03931Y07175*
X03931Y07175*
X03931Y07175*
X03931Y07175*
X03932Y07175*
X03932Y07175*
X03932Y07176*
X03932Y07176*
X03932Y07176*
X03933Y07177*
X03933Y07177*
X03934Y07178*
X03934Y07179*
X03936*
Y07153*
G37*
G36*
X0391Y07179D02*
X0391Y07179D01*
X0391Y07179*
X03911Y07179*
X03911Y07179*
X03912Y07179*
X03912Y07178*
X03913Y07178*
X03913Y07178*
X03914Y07178*
X03914Y07178*
X03915Y07178*
X03915Y07177*
X03916Y07177*
X03916Y07177*
X03916Y07177*
X03916Y07177*
X03916Y07177*
X03916Y07177*
X03917Y07176*
X03917Y07176*
X03917Y07176*
X03918Y07175*
X03918Y07175*
X03918Y07175*
X03919Y07174*
X03919Y07174*
X03919Y07173*
X0392Y07173*
X0392Y07173*
X0392Y07172*
X0392Y07172*
X0392Y07172*
X0392Y07172*
X0392Y07171*
X0392Y07171*
X03921Y07171*
X03921Y0717*
X03921Y0717*
X03921Y07169*
X03921Y07169*
X03921Y07168*
X03921Y07167*
X03921Y07167*
X03921Y07166*
Y07166*
Y07166*
Y07166*
X03921Y07165*
Y07165*
X03921Y07165*
X03921Y07164*
X03921Y07164*
X03921Y07164*
X03921Y07163*
X03921Y07162*
X03921Y07161*
X0392Y0716*
Y0716*
X0392Y0716*
X0392Y0716*
X0392Y0716*
X0392Y0716*
X0392Y07159*
X0392Y07159*
X0392Y07159*
X03919Y07158*
X03919Y07157*
X03918Y07157*
X03917Y07156*
X03917Y07156*
X03918Y07156*
X03918Y07156*
X03918Y07156*
X03918Y07156*
X03918Y07155*
X03919Y07155*
X03919Y07155*
X03919Y07155*
X0392Y07154*
X03921Y07154*
X03922Y07154*
X03921Y07151*
X03921*
X03921Y07151*
X0392Y07151*
X0392Y07152*
X0392Y07152*
X0392Y07152*
X03919Y07152*
X03919Y07152*
X03919Y07152*
X03918Y07153*
X03917Y07153*
X03916Y07154*
X03915Y07154*
X03915Y07154*
X03915Y07154*
X03915Y07154*
X03915Y07154*
X03915Y07154*
X03914Y07154*
X03914Y07154*
X03913Y07154*
X03913Y07153*
X03913Y07153*
X03912Y07153*
X03912Y07153*
X0391Y07153*
X0391Y07153*
X03909Y07153*
X03909*
X03909Y07153*
X03908Y07153*
X03908Y07153*
X03908Y07153*
X03907Y07153*
X03907Y07153*
X03906Y07153*
X03906Y07153*
X03905Y07154*
X03905Y07154*
X03904Y07154*
X03903Y07154*
X03903Y07155*
X03903Y07155*
X03903Y07155*
X03903Y07155*
X03902Y07155*
X03902Y07155*
X03902Y07155*
X03902Y07155*
X03901Y07156*
X03901Y07156*
X03901Y07156*
X039Y07157*
X039Y07157*
X039Y07158*
X03899Y07158*
X03899Y07159*
X03899Y07159*
X03899Y07159*
X03899Y07159*
X03899Y07159*
X03898Y0716*
X03898Y0716*
X03898Y0716*
X03898Y07161*
X03898Y07161*
X03898Y07162*
X03898Y07162*
X03897Y07163*
X03897Y07163*
X03897Y07164*
X03897Y07164*
X03897Y07165*
X03897Y07166*
Y07166*
Y07166*
Y07166*
X03897Y07166*
X03897Y07167*
X03897Y07167*
X03897Y07168*
X03897Y07168*
X03897Y07169*
X03897Y07169*
X03898Y0717*
X03898Y07171*
X03898Y07171*
X03898Y07172*
X03899Y07173*
X03899Y07173*
X03899Y07173*
X03899Y07173*
X03899Y07173*
X03899Y07173*
X03899Y07174*
X03899Y07174*
X039Y07174*
X039Y07175*
X039Y07175*
X03901Y07176*
X03901Y07176*
X03902Y07176*
X03902Y07177*
X03902Y07177*
X03903Y07177*
X03903Y07177*
X03903Y07177*
X03903Y07177*
X03903Y07178*
X03904Y07178*
X03904Y07178*
X03904Y07178*
X03905Y07178*
X03905Y07178*
X03906Y07178*
X03906Y07179*
X03907Y07179*
X03907Y07179*
X03908Y07179*
X03909Y07179*
X03909Y07179*
X0391*
X0391Y07179*
G37*
G36*
X04025Y07146D02*
X04005D01*
Y07149*
X04025*
Y07146*
G37*
G36*
X03963D02*
X03942D01*
Y07149*
X03963*
Y07146*
G37*
G36*
X03971Y0418D02*
X03971D01*
X03972Y0418*
X03972Y0418*
X03973Y0418*
X03974Y04179*
X03974Y04179*
X03974*
X03974Y04179*
X03974Y04179*
X03975Y04179*
X03975Y04179*
X03975Y04179*
X03976Y04179*
X03976Y04178*
X03976Y04178*
X03977Y04178*
X03977Y04177*
X03977Y04177*
X03977Y04177*
X03977Y04177*
X03977Y04176*
X03977Y04176*
X03978Y04175*
X03978Y04175*
X03975Y04174*
Y04174*
Y04174*
X03975Y04174*
X03975Y04175*
X03975Y04175*
X03974Y04175*
X03974Y04176*
X03974Y04176*
X03974Y04176*
X03973Y04176*
X03973Y04177*
X03973Y04177*
X03973Y04177*
X03972Y04177*
X03972Y04177*
X03971Y04177*
X03971Y04177*
X0397*
X0397Y04177*
X0397*
X0397Y04177*
X03969Y04177*
X03969Y04177*
X03968Y04177*
X03968Y04177*
X03968Y04177*
X03968Y04177*
X03968Y04176*
X03967Y04176*
X03967Y04176*
X03967Y04176*
X03967Y04176*
X03967Y04175*
X03967Y04175*
Y04175*
Y04175*
X03967Y04175*
X03967Y04175*
X03967Y04174*
X03967Y04174*
X03967Y04174*
X03967Y04174*
X03967Y04174*
X03967Y04174*
X03967Y04174*
X03968Y04173*
X03968Y04173*
X03968Y04173*
X03968Y04173*
X03968*
X03968Y04173*
X03969Y04173*
X03969Y04173*
X03969Y04173*
X03969Y04173*
X03969Y04173*
X0397Y04173*
X0397Y04173*
X0397Y04172*
X03971Y04172*
X03971Y04172*
X03971*
X03971Y04172*
X03971Y04172*
X03972Y04172*
X03972Y04172*
X03972Y04172*
X03973Y04172*
X03973Y04172*
X03974Y04171*
X03974Y04171*
X03975Y04171*
X03975Y04171*
X03975Y04171*
X03976Y04171*
X03976*
X03976Y04171*
X03976Y04171*
X03976Y04171*
X03976Y0417*
X03977Y0417*
X03977Y0417*
X03977Y0417*
X03978Y04169*
X03978Y04169*
X03978Y04169*
X03978Y04169*
X03978Y04168*
X03978Y04168*
X03978Y04168*
X03978Y04167*
X03978Y04166*
Y04166*
Y04166*
Y04166*
Y04166*
X03978Y04166*
X03978Y04166*
X03978Y04165*
X03978Y04165*
X03978Y04164*
X03978Y04164*
Y04164*
X03977Y04164*
X03977Y04163*
X03977Y04163*
X03977Y04163*
X03976Y04162*
X03976Y04162*
X03976Y04162*
X03975Y04161*
X03975*
X03975Y04161*
X03975Y04161*
X03975Y04161*
X03974Y04161*
X03974Y04161*
X03974Y04161*
X03974Y04161*
X03973Y04161*
X03973Y04161*
X03972Y04161*
X03971Y04161*
X03971*
X0397Y04161*
X0397Y04161*
X0397Y04161*
X03969Y04161*
X03969Y04161*
X03968Y04161*
X03967Y04161*
X03967Y04162*
X03966Y04162*
X03966Y04162*
X03966Y04162*
X03966Y04162*
X03966Y04162*
X03965Y04162*
X03965Y04162*
X03965Y04163*
X03965Y04163*
X03965Y04163*
X03965Y04163*
X03964Y04164*
X03964Y04164*
X03964Y04164*
X03964Y04165*
X03964Y04165*
X03964Y04166*
X03963Y04166*
X03963Y04167*
X03966Y04167*
Y04167*
X03966Y04167*
Y04167*
X03966Y04167*
X03966Y04167*
X03966Y04166*
X03967Y04166*
X03967Y04166*
X03967Y04165*
X03967Y04165*
X03968Y04164*
X03968*
X03968Y04164*
X03968Y04164*
X03968Y04164*
X03969Y04164*
X03969Y04164*
X0397Y04163*
X0397Y04163*
X03971Y04163*
X03971*
X03971Y04163*
X03972*
X03972Y04163*
X03972Y04163*
X03973Y04163*
X03973Y04164*
X03974Y04164*
X03974Y04164*
X03974Y04164*
X03974Y04164*
X03975Y04164*
X03975Y04165*
X03975Y04165*
X03975Y04165*
X03975Y04166*
X03975Y04166*
Y04166*
Y04166*
X03975Y04167*
X03975Y04167*
X03975Y04167*
X03975Y04167*
X03975Y04168*
X03974Y04168*
X03974Y04168*
X03974Y04168*
X03974Y04168*
X03974Y04168*
X03974Y04168*
X03973Y04168*
X03973Y04168*
X03973Y04168*
X03973Y04168*
X03972Y04169*
X03972Y04169*
X03972Y04169*
X03971Y04169*
X03971*
X03971Y04169*
X03971Y04169*
X03971Y04169*
X0397Y04169*
X0397Y04169*
X0397Y04169*
X03969Y04169*
X03969Y0417*
X03968Y0417*
X03967Y0417*
X03967Y0417*
X03967Y0417*
X03966Y0417*
X03966*
X03966Y0417*
X03966Y0417*
X03966Y04171*
X03966Y04171*
X03965Y04171*
X03965Y04171*
X03965Y04172*
X03964Y04172*
X03964Y04172*
X03964Y04172*
X03964Y04173*
X03964Y04173*
X03964Y04173*
X03964Y04174*
X03964Y04174*
X03964Y04175*
Y04175*
Y04175*
Y04175*
X03964Y04175*
X03964Y04175*
X03964Y04176*
X03964Y04176*
X03964Y04176*
X03964Y04177*
X03964Y04177*
X03964Y04177*
X03965Y04177*
X03965Y04177*
X03965Y04178*
X03965Y04178*
X03965Y04178*
X03966Y04179*
X03966Y04179*
X03966Y04179*
X03966Y04179*
X03966Y04179*
X03967Y04179*
X03967Y04179*
X03967Y04179*
X03968Y04179*
X03968*
X03968Y04179*
X03968Y04179*
X03968Y0418*
X03969Y0418*
X03969Y0418*
X03969Y0418*
X0397Y0418*
X0397Y0418*
X03971*
X03971Y0418*
G37*
G36*
X03999Y04161D02*
X03996D01*
X03993Y04172*
X03992Y04175*
X03989Y04161*
X03985*
X0398Y04179*
X03983*
X03986Y04169*
X03987Y04165*
Y04165*
X03987Y04165*
X03987Y04165*
Y04165*
X03987Y04165*
X03987Y04166*
X03987Y04166*
X03987Y04166*
X03987Y04166*
X03987Y04167*
X03988Y04167*
X03988Y04168*
X03988Y04168*
X03988Y04169*
X03991Y04179*
X03994*
X03997Y04169*
X03998Y04165*
X03999Y04169*
X04002Y04179*
X04005*
X03999Y04161*
G37*
G36*
X04038D02*
X04035D01*
Y04181*
X04035Y04181*
X04035Y04181*
X04034Y0418*
X04034Y0418*
X04034Y0418*
X04033Y04179*
X04032Y04179*
X04032Y04179*
X04032*
X04032Y04179*
X04032Y04179*
X04032Y04179*
X04031Y04178*
X04031Y04178*
X04031Y04178*
X0403Y04178*
X0403Y04178*
X04029Y04177*
X04029Y04177*
Y0418*
X04029Y0418*
X04029Y0418*
X04029Y0418*
X04029Y0418*
X04029Y0418*
X0403Y04181*
X0403Y04181*
X0403Y04181*
X04031Y04181*
X04032Y04182*
X04032Y04182*
X04033Y04183*
X04033Y04183*
X04033Y04183*
X04033Y04183*
X04033Y04183*
X04034Y04184*
X04034Y04184*
X04034Y04184*
X04035Y04185*
X04035Y04185*
X04036Y04186*
X04036Y04186*
X04038*
Y04161*
G37*
G36*
X03936D02*
X03933D01*
Y04181*
X03933Y04181*
X03933Y04181*
X03933Y0418*
X03932Y0418*
X03932Y0418*
X03931Y04179*
X03931Y04179*
X0393Y04179*
X0393*
X0393Y04179*
X0393Y04179*
X0393Y04179*
X0393Y04178*
X03929Y04178*
X03929Y04178*
X03929Y04178*
X03928Y04178*
X03927Y04177*
X03927Y04177*
Y0418*
X03927Y0418*
X03927Y0418*
X03927Y0418*
X03927Y0418*
X03927Y0418*
X03928Y04181*
X03928Y04181*
X03928Y04181*
X03929Y04181*
X0393Y04182*
X03931Y04182*
X03931Y04183*
X03931Y04183*
X03931Y04183*
X03932Y04183*
X03932Y04183*
X03932Y04184*
X03932Y04184*
X03932Y04184*
X03933Y04185*
X03933Y04185*
X03934Y04186*
X03934Y04186*
X03936*
Y04161*
G37*
G36*
X0391Y04187D02*
X0391Y04187D01*
X0391Y04187*
X03911Y04187*
X03911Y04187*
X03912Y04186*
X03912Y04186*
X03913Y04186*
X03913Y04186*
X03914Y04186*
X03914Y04186*
X03915Y04185*
X03915Y04185*
X03916Y04185*
X03916Y04185*
X03916Y04185*
X03916Y04185*
X03916Y04185*
X03916Y04184*
X03917Y04184*
X03917Y04184*
X03917Y04184*
X03918Y04183*
X03918Y04183*
X03918Y04182*
X03919Y04182*
X03919Y04182*
X03919Y04181*
X0392Y0418*
X0392Y0418*
X0392Y0418*
X0392Y0418*
X0392Y0418*
X0392Y0418*
X0392Y04179*
X0392Y04179*
X03921Y04179*
X03921Y04178*
X03921Y04178*
X03921Y04177*
X03921Y04176*
X03921Y04176*
X03921Y04175*
X03921Y04174*
X03921Y04174*
Y04174*
Y04174*
Y04173*
X03921Y04173*
Y04173*
X03921Y04173*
X03921Y04172*
X03921Y04172*
X03921Y04171*
X03921Y04171*
X03921Y0417*
X03921Y04169*
X0392Y04168*
Y04168*
X0392Y04168*
X0392Y04168*
X0392Y04168*
X0392Y04168*
X0392Y04167*
X0392Y04167*
X0392Y04167*
X03919Y04166*
X03919Y04165*
X03918Y04165*
X03917Y04164*
X03917Y04164*
X03918Y04164*
X03918Y04164*
X03918Y04164*
X03918Y04163*
X03918Y04163*
X03919Y04163*
X03919Y04163*
X03919Y04163*
X0392Y04162*
X03921Y04162*
X03922Y04162*
X03921Y04159*
X03921*
X03921Y04159*
X0392Y04159*
X0392Y04159*
X0392Y0416*
X0392Y0416*
X03919Y0416*
X03919Y0416*
X03919Y0416*
X03918Y0416*
X03917Y04161*
X03916Y04162*
X03915Y04162*
X03915Y04162*
X03915Y04162*
X03915Y04162*
X03915Y04162*
X03915Y04162*
X03914Y04162*
X03914Y04162*
X03913Y04162*
X03913Y04161*
X03913Y04161*
X03912Y04161*
X03912Y04161*
X0391Y04161*
X0391Y04161*
X03909Y04161*
X03909*
X03909Y04161*
X03908Y04161*
X03908Y04161*
X03908Y04161*
X03907Y04161*
X03907Y04161*
X03906Y04161*
X03906Y04161*
X03905Y04161*
X03905Y04162*
X03904Y04162*
X03903Y04162*
X03903Y04162*
X03903Y04162*
X03903Y04162*
X03903Y04163*
X03902Y04163*
X03902Y04163*
X03902Y04163*
X03902Y04163*
X03901Y04164*
X03901Y04164*
X03901Y04164*
X039Y04165*
X039Y04165*
X039Y04165*
X03899Y04166*
X03899Y04166*
X03899Y04167*
X03899Y04167*
X03899Y04167*
X03899Y04167*
X03898Y04168*
X03898Y04168*
X03898Y04168*
X03898Y04169*
X03898Y04169*
X03898Y04169*
X03898Y0417*
X03897Y04171*
X03897Y04171*
X03897Y04172*
X03897Y04172*
X03897Y04173*
X03897Y04174*
Y04174*
Y04174*
Y04174*
X03897Y04174*
X03897Y04175*
X03897Y04175*
X03897Y04176*
X03897Y04176*
X03897Y04176*
X03897Y04177*
X03898Y04178*
X03898Y04179*
X03898Y04179*
X03898Y0418*
X03899Y04181*
X03899Y04181*
X03899Y04181*
X03899Y04181*
X03899Y04181*
X03899Y04181*
X03899Y04182*
X03899Y04182*
X039Y04182*
X039Y04183*
X039Y04183*
X03901Y04183*
X03901Y04184*
X03902Y04184*
X03902Y04185*
X03902Y04185*
X03903Y04185*
X03903Y04185*
X03903Y04185*
X03903Y04185*
X03903Y04185*
X03904Y04186*
X03904Y04186*
X03904Y04186*
X03905Y04186*
X03905Y04186*
X03906Y04186*
X03906Y04186*
X03907Y04187*
X03907Y04187*
X03908Y04187*
X03909Y04187*
X03909Y04187*
X0391*
X0391Y04187*
G37*
G36*
X04025Y04154D02*
X04005D01*
Y04156*
X04025*
Y04154*
G37*
G36*
X03963D02*
X03942D01*
Y04156*
X03963*
Y04154*
G37*
%LNmain_mechanical_5-2*%
%LPC*%
G36*
X0391Y01203D02*
X03909D01*
X03909Y01203*
X03909*
X03908Y01202*
X03908Y01202*
X03907Y01202*
X03907Y01202*
X03907Y01202*
X03906Y01202*
X03906Y01202*
X03905Y01201*
X03905Y01201*
X03904Y01201*
X03903Y012*
X03903Y012*
X03903Y012*
X03903Y012*
X03903Y012*
X03903Y012*
X03902Y01199*
X03902Y01199*
X03902Y01199*
X03902Y01198*
X03902Y01198*
X03901Y01197*
X03901Y01196*
X03901Y01196*
X03901Y01195*
X03901Y01194*
X03901Y01193*
X03901Y01192*
Y01192*
Y01192*
X03901Y01192*
Y01192*
X03901Y01191*
X03901Y01191*
X03901Y0119*
X03901Y0119*
X03901Y01189*
X03901Y01188*
X03901Y01188*
X03902Y01187*
X03902Y01186*
X03902Y01186*
X03903Y01185*
X03903Y01185*
X03903Y01185*
X03903Y01185*
X03903Y01185*
X03903Y01184*
X03904Y01184*
X03904Y01184*
X03904Y01184*
X03905Y01184*
X03905Y01183*
X03906Y01183*
X03906Y01183*
X03907Y01183*
X03907Y01182*
X03908Y01182*
X03909Y01182*
X03909Y01182*
X0391*
X0391Y01182*
X0391*
X0391Y01182*
X03911Y01182*
X03911Y01182*
X03912Y01183*
X03913Y01183*
X03913*
X03913Y01183*
X03912Y01183*
X03912Y01183*
X03912Y01183*
X03912Y01183*
X03912Y01183*
X03911Y01184*
X03911Y01184*
X0391Y01184*
X03909Y01184*
X0391Y01187*
X0391*
X0391Y01187*
X0391Y01187*
X03911Y01187*
X03911Y01186*
X03911Y01186*
X03911Y01186*
X03912Y01186*
X03913Y01186*
X03913Y01185*
X03914Y01185*
X03915Y01184*
X03915Y01184*
X03915Y01184*
X03915Y01185*
X03915Y01185*
X03916Y01185*
X03916Y01185*
X03916Y01186*
X03916Y01186*
X03917Y01187*
X03917Y01187*
X03917Y01188*
X03917Y01189*
X03918Y0119*
X03918Y0119*
X03918Y01191*
X03918Y01192*
Y01192*
Y01193*
Y01193*
X03918Y01193*
Y01193*
X03918Y01193*
X03918Y01194*
X03918Y01194*
X03918Y01195*
X03917Y01196*
X03917Y01197*
X03917Y01198*
Y01198*
X03917Y01198*
X03917Y01198*
X03917Y01198*
X03916Y01198*
X03916Y01198*
X03916Y01199*
X03916Y012*
X03915Y012*
X03914Y01201*
X03914Y01201*
X03914Y01201*
X03914Y01201*
X03914Y01201*
X03913Y01201*
X03913Y01202*
X03913Y01202*
X03913Y01202*
X03912Y01202*
X03912Y01202*
X03912Y01202*
X03911Y01202*
X0391Y01202*
X0391Y01203*
G37*
G36*
Y07176D02*
X03909D01*
X03909Y07176*
X03909*
X03908Y07176*
X03908Y07176*
X03907Y07176*
X03907Y07176*
X03907Y07176*
X03906Y07175*
X03906Y07175*
X03905Y07175*
X03905Y07175*
X03904Y07174*
X03903Y07174*
X03903Y07173*
X03903Y07173*
X03903Y07173*
X03903Y07173*
X03903Y07173*
X03902Y07173*
X03902Y07172*
X03902Y07172*
X03902Y07172*
X03902Y07171*
X03901Y07171*
X03901Y0717*
X03901Y07169*
X03901Y07168*
X03901Y07168*
X03901Y07167*
X03901Y07166*
Y07166*
Y07166*
X03901Y07165*
Y07165*
X03901Y07165*
X03901Y07164*
X03901Y07164*
X03901Y07163*
X03901Y07162*
X03901Y07162*
X03901Y07161*
X03902Y07161*
X03902Y0716*
X03902Y07159*
X03903Y07159*
X03903Y07158*
X03903Y07158*
X03903Y07158*
X03903Y07158*
X03903Y07158*
X03904Y07158*
X03904Y07158*
X03904Y07157*
X03905Y07157*
X03905Y07157*
X03906Y07157*
X03906Y07156*
X03907Y07156*
X03907Y07156*
X03908Y07156*
X03909Y07156*
X03909Y07156*
X0391*
X0391Y07156*
X0391*
X0391Y07156*
X03911Y07156*
X03911Y07156*
X03912Y07156*
X03913Y07156*
X03913*
X03913Y07156*
X03912Y07156*
X03912Y07157*
X03912Y07157*
X03912Y07157*
X03912Y07157*
X03911Y07157*
X03911Y07157*
X0391Y07158*
X03909Y07158*
X0391Y0716*
X0391*
X0391Y0716*
X0391Y0716*
X03911Y0716*
X03911Y0716*
X03911Y0716*
X03911Y0716*
X03912Y0716*
X03913Y07159*
X03913Y07159*
X03914Y07158*
X03915Y07158*
X03915Y07158*
X03915Y07158*
X03915Y07158*
X03915Y07158*
X03916Y07159*
X03916Y07159*
X03916Y07159*
X03916Y0716*
X03917Y0716*
X03917Y07161*
X03917Y07162*
X03917Y07162*
X03918Y07163*
X03918Y07164*
X03918Y07165*
X03918Y07166*
Y07166*
Y07166*
Y07166*
X03918Y07166*
Y07167*
X03918Y07167*
X03918Y07167*
X03918Y07168*
X03918Y07169*
X03917Y07169*
X03917Y0717*
X03917Y07171*
Y07171*
X03917Y07171*
X03917Y07171*
X03917Y07172*
X03916Y07172*
X03916Y07172*
X03916Y07173*
X03916Y07173*
X03915Y07174*
X03914Y07174*
X03914Y07175*
X03914Y07175*
X03914Y07175*
X03914Y07175*
X03913Y07175*
X03913Y07175*
X03913Y07175*
X03913Y07175*
X03912Y07175*
X03912Y07176*
X03912Y07176*
X03911Y07176*
X0391Y07176*
X0391Y07176*
G37*
G36*
Y04184D02*
X03909D01*
X03909Y04184*
X03909*
X03908Y04184*
X03908Y04184*
X03907Y04184*
X03907Y04184*
X03907Y04183*
X03906Y04183*
X03906Y04183*
X03905Y04183*
X03905Y04183*
X03904Y04182*
X03903Y04182*
X03903Y04181*
X03903Y04181*
X03903Y04181*
X03903Y04181*
X03903Y04181*
X03902Y04181*
X03902Y0418*
X03902Y0418*
X03902Y04179*
X03902Y04179*
X03901Y04178*
X03901Y04178*
X03901Y04177*
X03901Y04176*
X03901Y04176*
X03901Y04175*
X03901Y04174*
Y04174*
Y04174*
X03901Y04173*
Y04173*
X03901Y04173*
X03901Y04172*
X03901Y04172*
X03901Y04171*
X03901Y0417*
X03901Y0417*
X03901Y04169*
X03902Y04168*
X03902Y04168*
X03902Y04167*
X03903Y04167*
X03903Y04166*
X03903Y04166*
X03903Y04166*
X03903Y04166*
X03903Y04166*
X03904Y04166*
X03904Y04165*
X03904Y04165*
X03905Y04165*
X03905Y04165*
X03906Y04164*
X03906Y04164*
X03907Y04164*
X03907Y04164*
X03908Y04164*
X03909Y04164*
X03909Y04164*
X0391*
X0391Y04164*
X0391*
X0391Y04164*
X03911Y04164*
X03911Y04164*
X03912Y04164*
X03913Y04164*
X03913*
X03913Y04164*
X03912Y04164*
X03912Y04164*
X03912Y04164*
X03912Y04165*
X03912Y04165*
X03911Y04165*
X03911Y04165*
X0391Y04165*
X03909Y04166*
X0391Y04168*
X0391*
X0391Y04168*
X0391Y04168*
X03911Y04168*
X03911Y04168*
X03911Y04168*
X03911Y04168*
X03912Y04168*
X03913Y04167*
X03913Y04167*
X03914Y04166*
X03915Y04166*
X03915Y04166*
X03915Y04166*
X03915Y04166*
X03915Y04166*
X03916Y04166*
X03916Y04167*
X03916Y04167*
X03916Y04168*
X03917Y04168*
X03917Y04169*
X03917Y0417*
X03917Y0417*
X03918Y04171*
X03918Y04172*
X03918Y04173*
X03918Y04174*
Y04174*
Y04174*
Y04174*
X03918Y04174*
Y04175*
X03918Y04175*
X03918Y04175*
X03918Y04176*
X03918Y04176*
X03917Y04177*
X03917Y04178*
X03917Y04179*
Y04179*
X03917Y04179*
X03917Y04179*
X03917Y04179*
X03916Y0418*
X03916Y0418*
X03916Y0418*
X03916Y04181*
X03915Y04182*
X03914Y04182*
X03914Y04183*
X03914Y04183*
X03914Y04183*
X03914Y04183*
X03913Y04183*
X03913Y04183*
X03913Y04183*
X03913Y04183*
X03912Y04183*
X03912Y04183*
X03912Y04184*
X03911Y04184*
X0391Y04184*
X0391Y04184*
G37*
%LNmain_mechanical_5-3*%
%LPD*%
G54D47*
X03836Y01244D02*
X03958D01*
Y01118D02*
Y01244D01*
X03836Y01118D02*
X03958D01*
X03836D02*
Y01244D01*
Y07091D02*
Y07217D01*
Y07091D02*
X03958D01*
Y07217*
X03836D02*
X03958D01*
X03836Y04099D02*
Y04225D01*
Y04099D02*
X03958D01*
Y04225*
X03836D02*
X03958D01*
M02*