%FSTAX23Y23*%
%MOIN*%
%SFA1B1*%

%IPPOS*%
%ADD26C,0.060000*%
%ADD27C,0.078740*%
%ADD28R,0.062992X0.062992*%
%ADD29C,0.062992*%
%ADD30C,0.118110*%
%ADD31R,0.039370X0.039370*%
%ADD32C,0.102362*%
%LNmain_pads_bot-1*%
%LPD*%
G54D26*
X02885Y01152D03*
X02076Y01072D03*
X02795Y01456D03*
Y00659D03*
X0122Y01515D03*
X05511Y01279D03*
Y04724D03*
X01279D03*
X05511Y09645D03*
X01279D03*
G54D27*
X03078Y00324D03*
Y00422D03*
X03179D03*
X03278Y00424D03*
X03378D03*
Y00325D03*
X03278D03*
X03179Y00324D03*
G54D28*
X0247Y00452D03*
G54D29*
X02667Y00452D03*
G54D30*
X04031Y04434D03*
X03031D03*
X04731Y04634D03*
X02331D03*
X04031Y09316D03*
X03031D03*
X04731Y09516D03*
X02331D03*
X04031Y01453D03*
X03031D03*
X04731Y01653D03*
X02331D03*
X04031Y02398D03*
X03031D03*
X04731Y02598D03*
X02331D03*
X04031Y03343D03*
X03031D03*
X04731Y03543D03*
X02331D03*
Y08571D03*
X04731D03*
X03031Y08371D03*
X04031D03*
X02331Y07627D03*
X04731D03*
X03031Y07427D03*
X04031D03*
X02331Y06524D03*
X04731D03*
X03031Y06324D03*
X04031D03*
X02331Y05579D03*
X04731D03*
X03031Y05379D03*
X04031D03*
G54D31*
X01377Y02598D03*
X05472D03*
X01377Y08611D03*
X05519Y08611D03*
X01377Y05619D03*
X05519Y05619D03*
G54D32*
X01555Y0307D03*
X01753D03*
X05295Y02992D03*
X05493D03*
X01555Y09044D03*
X01753D03*
X05295Y08965D03*
X05493D03*
X01555Y06052D03*
X01753D03*
X05295Y05973D03*
X05493D03*
M02*